G04 #@! TF.GenerationSoftware,KiCad,Pcbnew,(5.1.2)-2*
G04 #@! TF.CreationDate,2019-10-02T12:28:31-07:00*
G04 #@! TF.ProjectId,violet,76696f6c-6574-42e6-9b69-6361645f7063,rev?*
G04 #@! TF.SameCoordinates,Original*
G04 #@! TF.FileFunction,Paste,Top*
G04 #@! TF.FilePolarity,Positive*
%FSLAX46Y46*%
G04 Gerber Fmt 4.6, Leading zero omitted, Abs format (unit mm)*
G04 Created by KiCad (PCBNEW (5.1.2)-2) date 2019-10-02 12:28:31*
%MOMM*%
%LPD*%
G04 APERTURE LIST*
%ADD10R,0.400000X0.400000*%
%ADD11R,0.550000X0.260000*%
%ADD12R,0.260000X0.550000*%
%ADD13R,0.700000X0.600000*%
%ADD14R,0.450000X0.250000*%
%ADD15R,1.800000X1.800000*%
%ADD16R,0.500000X0.250000*%
%ADD17R,0.250000X0.500000*%
%ADD18R,0.850000X0.850000*%
%ADD19R,0.250000X0.700000*%
%ADD20R,0.700000X0.250000*%
%ADD21R,0.528000X0.636000*%
%ADD22R,0.280000X0.500000*%
%ADD23R,0.600000X1.250000*%
%ADD24R,0.600000X1.050000*%
%ADD25R,1.250000X0.600000*%
%ADD26R,1.050000X0.600000*%
%ADD27R,0.500000X0.600000*%
%ADD28R,0.600000X0.500000*%
%ADD29R,0.800000X0.750000*%
%ADD30R,0.750000X0.800000*%
%ADD31R,1.520000X4.060000*%
%ADD32R,0.400000X0.600000*%
%ADD33R,0.600000X0.400000*%
%ADD34R,1.651000X0.762000*%
%ADD35R,0.762000X1.651000*%
%ADD36C,0.100000*%
%ADD37C,0.250000*%
%ADD38C,0.578177*%
%ADD39C,0.590166*%
%ADD40C,0.806226*%
%ADD41R,0.760000X1.650000*%
G04 APERTURE END LIST*
D10*
X54432200Y-82732500D03*
X53932200Y-82732500D03*
X54932200Y-82732500D03*
X53932200Y-82232500D03*
X53932200Y-81732500D03*
X54932200Y-81732500D03*
X54932200Y-82232500D03*
X54432200Y-81732500D03*
X54432200Y-82232500D03*
D11*
X52657200Y-83232500D03*
X52657200Y-82732500D03*
X52657200Y-81232500D03*
X52657200Y-81732500D03*
X52657200Y-82232500D03*
X56207200Y-83232500D03*
X56207200Y-82732500D03*
X56207200Y-81232500D03*
X56207200Y-81732500D03*
X56207200Y-82232500D03*
D12*
X55432200Y-84007500D03*
X54932200Y-84007500D03*
X53432200Y-84007500D03*
X53932200Y-84007500D03*
X54432200Y-84007500D03*
X55432200Y-80457500D03*
X54932200Y-80457500D03*
X53932200Y-80457500D03*
X53432200Y-80457500D03*
X54432200Y-80457500D03*
D10*
X51338100Y-87571200D03*
X50838100Y-87571200D03*
X51838100Y-87571200D03*
X50838100Y-87071200D03*
X50838100Y-86571200D03*
X51838100Y-86571200D03*
X51838100Y-87071200D03*
X51338100Y-86571200D03*
X51338100Y-87071200D03*
D11*
X49563100Y-88071200D03*
X49563100Y-87571200D03*
X49563100Y-86071200D03*
X49563100Y-86571200D03*
X49563100Y-87071200D03*
X53113100Y-88071200D03*
X53113100Y-87571200D03*
X53113100Y-86071200D03*
X53113100Y-86571200D03*
X53113100Y-87071200D03*
D12*
X52338100Y-88846200D03*
X51838100Y-88846200D03*
X50338100Y-88846200D03*
X50838100Y-88846200D03*
X51338100Y-88846200D03*
X52338100Y-85296200D03*
X51838100Y-85296200D03*
X50838100Y-85296200D03*
X50338100Y-85296200D03*
X51338100Y-85296200D03*
D13*
X58686700Y-80333900D03*
X58686700Y-81133900D03*
D14*
X57761700Y-81483900D03*
X57761700Y-80983900D03*
X57761700Y-79983900D03*
X57761700Y-80483900D03*
X59611700Y-81483900D03*
X59611700Y-80983900D03*
X59611700Y-79983900D03*
X59611700Y-80483900D03*
D13*
X49695100Y-78467000D03*
X49695100Y-79267000D03*
D14*
X48770100Y-79617000D03*
X48770100Y-79117000D03*
X48770100Y-78117000D03*
X48770100Y-78617000D03*
X50620100Y-79617000D03*
X50620100Y-79117000D03*
X50620100Y-78117000D03*
X50620100Y-78617000D03*
D13*
X46964600Y-85121800D03*
X46964600Y-85921800D03*
D14*
X46039600Y-86271800D03*
X46039600Y-85771800D03*
X46039600Y-84771800D03*
X46039600Y-85271800D03*
X47889600Y-86271800D03*
X47889600Y-85771800D03*
X47889600Y-84771800D03*
X47889600Y-85271800D03*
D15*
X51117500Y-129921000D03*
D16*
X52467500Y-129171000D03*
X52467500Y-129671000D03*
X52467500Y-130171000D03*
X52467500Y-130671000D03*
D17*
X51867500Y-131271000D03*
X51367500Y-131271000D03*
X50867500Y-131271000D03*
X50367500Y-131271000D03*
D16*
X49767500Y-130671000D03*
X49767500Y-130171000D03*
X49767500Y-129671000D03*
X49767500Y-129171000D03*
D17*
X50367500Y-128571000D03*
X50867500Y-128571000D03*
X51367500Y-128571000D03*
X51867500Y-128571000D03*
D18*
X50094500Y-141612000D03*
X50094500Y-140462000D03*
X50094500Y-139312000D03*
X51244500Y-139312000D03*
X52394500Y-139312000D03*
X52394500Y-140462000D03*
X52394500Y-141612000D03*
X51244500Y-141612000D03*
X51244500Y-140462000D03*
D19*
X49494500Y-138062000D03*
X49994500Y-138062000D03*
X50494500Y-138062000D03*
X50994500Y-138062000D03*
X52994500Y-138062000D03*
X52494500Y-138062000D03*
X51994500Y-138062000D03*
X51494500Y-138062000D03*
X49494500Y-142862000D03*
X49994500Y-142862000D03*
X50494500Y-142862000D03*
X50994500Y-142862000D03*
X52994500Y-142862000D03*
X52494500Y-142862000D03*
X51994500Y-142862000D03*
X51494500Y-142862000D03*
D20*
X48844500Y-142212000D03*
X48844500Y-141712000D03*
X48844500Y-141212000D03*
X48844500Y-140712000D03*
X48844500Y-138712000D03*
X48844500Y-139212000D03*
X48844500Y-139712000D03*
X48844500Y-140212000D03*
X53644500Y-142212000D03*
X53644500Y-141712000D03*
X53644500Y-141212000D03*
X53644500Y-140712000D03*
X53644500Y-140212000D03*
X53644500Y-139712000D03*
X53644500Y-139212000D03*
X53644500Y-138712000D03*
D21*
X49190800Y-95262700D03*
X48310800Y-95262700D03*
D22*
X49500800Y-96212700D03*
X49000800Y-96212700D03*
X48500800Y-96212700D03*
X48000800Y-96212700D03*
X48000800Y-94312700D03*
X48500800Y-94312700D03*
X49000800Y-94312700D03*
X49500800Y-94312700D03*
D23*
X58724800Y-126653600D03*
X56824800Y-126653600D03*
D24*
X56824800Y-124053600D03*
X57774800Y-124053600D03*
X58724800Y-124053600D03*
D25*
X62188400Y-115773200D03*
X62188400Y-117673200D03*
D26*
X59588400Y-117673200D03*
X59588400Y-116723200D03*
X59588400Y-115773200D03*
D25*
X59782400Y-93776800D03*
X59782400Y-91876800D03*
D26*
X62382400Y-91876800D03*
X62382400Y-92826800D03*
X62382400Y-93776800D03*
D27*
X66078100Y-139988200D03*
X66078100Y-141088200D03*
D28*
X68761700Y-141998700D03*
X67661700Y-141998700D03*
X68774400Y-134251700D03*
X67674400Y-134251700D03*
X68761700Y-143370300D03*
X67661700Y-143370300D03*
X68774400Y-135610600D03*
X67674400Y-135610600D03*
X62137200Y-135686800D03*
X63237200Y-135686800D03*
D27*
X63271400Y-143894900D03*
X63271400Y-142794900D03*
D28*
X62594400Y-134137400D03*
X63694400Y-134137400D03*
D27*
X61798200Y-143869500D03*
X61798200Y-142769500D03*
X62230000Y-110968700D03*
X62230000Y-112068700D03*
D28*
X63737400Y-107200700D03*
X64837400Y-107200700D03*
D29*
X63258000Y-108724700D03*
X64758000Y-108724700D03*
D28*
X68926800Y-110070900D03*
X67826800Y-110070900D03*
D27*
X67792600Y-84484300D03*
X67792600Y-83384300D03*
D28*
X68926800Y-111340900D03*
X67826800Y-111340900D03*
D27*
X57226200Y-74786400D03*
X57226200Y-75886400D03*
X47117000Y-74608600D03*
X47117000Y-75708600D03*
X52527200Y-71137600D03*
X52527200Y-72237600D03*
X50038000Y-82804000D03*
X50038000Y-83904000D03*
D28*
X52882800Y-76657200D03*
X51782800Y-76657200D03*
D27*
X53543200Y-78139200D03*
X53543200Y-79239200D03*
X48996600Y-91829800D03*
X48996600Y-92929800D03*
D29*
X52794600Y-92964000D03*
X51294600Y-92964000D03*
D28*
X52327900Y-94500700D03*
X51227900Y-94500700D03*
X55033000Y-97739200D03*
X53933000Y-97739200D03*
D27*
X49034700Y-97595600D03*
X49034700Y-98695600D03*
D28*
X54956800Y-95999300D03*
X53856800Y-95999300D03*
D27*
X59524900Y-110422600D03*
X59524900Y-111522600D03*
X58127900Y-110406000D03*
X58127900Y-111506000D03*
D28*
X57081600Y-118465600D03*
X55981600Y-118465600D03*
D27*
X61048900Y-106460200D03*
X61048900Y-107560200D03*
D28*
X57090400Y-117043200D03*
X55990400Y-117043200D03*
D27*
X57619900Y-106443600D03*
X57619900Y-107543600D03*
X54914800Y-104453600D03*
X54914800Y-105553600D03*
X48717200Y-119574400D03*
X48717200Y-118474400D03*
X50698400Y-116391600D03*
X50698400Y-117491600D03*
X51968400Y-116391600D03*
X51968400Y-117491600D03*
X47802800Y-108957200D03*
X47802800Y-107857200D03*
X49149000Y-108957200D03*
X49149000Y-107857200D03*
X54102000Y-119574400D03*
X54102000Y-118474400D03*
D28*
X52434400Y-105613200D03*
X53534400Y-105613200D03*
X52434400Y-104292400D03*
X53534400Y-104292400D03*
D30*
X57048400Y-100354000D03*
X57048400Y-101854000D03*
D28*
X50808800Y-118770400D03*
X51908800Y-118770400D03*
X50694500Y-123126500D03*
X51794500Y-123126500D03*
X50694500Y-124460000D03*
X51794500Y-124460000D03*
D27*
X54737000Y-126640500D03*
X54737000Y-127740500D03*
X47561500Y-126704000D03*
X47561500Y-127804000D03*
X47498000Y-123139200D03*
X47498000Y-122039200D03*
D28*
X48403600Y-131267200D03*
X47303600Y-131267200D03*
X50461000Y-133223000D03*
X49361000Y-133223000D03*
X53509000Y-136652000D03*
X52409000Y-136652000D03*
D27*
X54546500Y-135360500D03*
X54546500Y-134260500D03*
D30*
X47752000Y-132790500D03*
X47752000Y-134290500D03*
X47752000Y-137402000D03*
X47752000Y-135902000D03*
D29*
X57239600Y-138480800D03*
X55739600Y-138480800D03*
D30*
X49466500Y-136195500D03*
X49466500Y-134695500D03*
D28*
X57395200Y-136906000D03*
X56295200Y-136906000D03*
D27*
X50990500Y-136757500D03*
X50990500Y-135657500D03*
X43891200Y-142248800D03*
X43891200Y-143348800D03*
X45466000Y-142248800D03*
X45466000Y-143348800D03*
X47752000Y-143121200D03*
X47752000Y-144221200D03*
D28*
X56650800Y-122631200D03*
X57750800Y-122631200D03*
D29*
X60768800Y-90119200D03*
X62268800Y-90119200D03*
X61354400Y-95859600D03*
X59854400Y-95859600D03*
X57060400Y-128422400D03*
X58560400Y-128422400D03*
X57060400Y-130251200D03*
X58560400Y-130251200D03*
X61100400Y-119481600D03*
X59600400Y-119481600D03*
X60667200Y-113893600D03*
X62167200Y-113893600D03*
X62470600Y-141185900D03*
X63970600Y-141185900D03*
D30*
X63804800Y-112090900D03*
X63804800Y-110590900D03*
D29*
X55410800Y-101803200D03*
X53910800Y-101803200D03*
D30*
X67310000Y-105333100D03*
X67310000Y-106833100D03*
D29*
X50850100Y-97637600D03*
X52350100Y-97637600D03*
D30*
X52070000Y-121666000D03*
X52070000Y-120166000D03*
X50546000Y-121666000D03*
X50546000Y-120166000D03*
D31*
X59817000Y-70231000D03*
X54737000Y-70231000D03*
X57277000Y-70231000D03*
X49657000Y-70231000D03*
X44577000Y-70231000D03*
X47117000Y-70231000D03*
D32*
X59428800Y-140817600D03*
X58528800Y-140817600D03*
X59454200Y-139382500D03*
X58554200Y-139382500D03*
D33*
X61671200Y-131564800D03*
X61671200Y-130664800D03*
X64744600Y-135363800D03*
X64744600Y-136263800D03*
D32*
X67252000Y-108724700D03*
X66352000Y-108724700D03*
D33*
X64516000Y-78264600D03*
X64516000Y-79164600D03*
X64516000Y-76194500D03*
X64516000Y-77094500D03*
X66052700Y-77107200D03*
X66052700Y-76207200D03*
D32*
X63442000Y-80695800D03*
X62542000Y-80695800D03*
X65626400Y-80683100D03*
X64726400Y-80683100D03*
D33*
X66040000Y-78315400D03*
X66040000Y-79215400D03*
D32*
X46311400Y-77165200D03*
X47211400Y-77165200D03*
X43987300Y-77177900D03*
X44887300Y-77177900D03*
D33*
X42468800Y-76473900D03*
X42468800Y-77373900D03*
X48590200Y-81655500D03*
X48590200Y-82555500D03*
D32*
X51758000Y-73863200D03*
X50858000Y-73863200D03*
X51707200Y-75336400D03*
X50807200Y-75336400D03*
X52151700Y-95973900D03*
X51251700Y-95973900D03*
X59111300Y-113004600D03*
X58211300Y-113004600D03*
X58897100Y-108940600D03*
X59797100Y-108940600D03*
X59797100Y-107505500D03*
X58897100Y-107505500D03*
D33*
X56083200Y-115562800D03*
X56083200Y-114662800D03*
X48717200Y-116390000D03*
X48717200Y-117290000D03*
X54102000Y-116390000D03*
X54102000Y-117290000D03*
X51879500Y-125724500D03*
X51879500Y-126624500D03*
X50482500Y-125724500D03*
X50482500Y-126624500D03*
X53340000Y-126550000D03*
X53340000Y-127450000D03*
X49022000Y-126613500D03*
X49022000Y-127513500D03*
X51816000Y-133027000D03*
X51816000Y-133927000D03*
X53213000Y-133027000D03*
X53213000Y-133927000D03*
D34*
X62598300Y-78613000D03*
X62598300Y-76073000D03*
X59423300Y-76073000D03*
X59423300Y-78613000D03*
X59423300Y-77343000D03*
X62776100Y-82537300D03*
X62776100Y-85077300D03*
X65951100Y-85077300D03*
X65951100Y-82537300D03*
X65951100Y-83807300D03*
D35*
X46939200Y-79171800D03*
X44399200Y-79171800D03*
X44399200Y-82346800D03*
X46939200Y-82346800D03*
X45669200Y-82346800D03*
D36*
G36*
X53710315Y-113228186D02*
G01*
X53716337Y-113229350D01*
X53722216Y-113231099D01*
X53727896Y-113233415D01*
X53841184Y-113286242D01*
X53846609Y-113289103D01*
X53851727Y-113292483D01*
X53856489Y-113296348D01*
X53860850Y-113300662D01*
X53864767Y-113305382D01*
X53868202Y-113310463D01*
X53871123Y-113315856D01*
X53873501Y-113321510D01*
X53875313Y-113327369D01*
X53876543Y-113333378D01*
X53877177Y-113339479D01*
X53877211Y-113345612D01*
X53876643Y-113351719D01*
X53875479Y-113357741D01*
X53873730Y-113363620D01*
X53871414Y-113369300D01*
X53607278Y-113935743D01*
X53604417Y-113941168D01*
X53601037Y-113946286D01*
X53597172Y-113951048D01*
X53592858Y-113955409D01*
X53588139Y-113959326D01*
X53583057Y-113962761D01*
X53577664Y-113965682D01*
X53572010Y-113968060D01*
X53566151Y-113969872D01*
X53560142Y-113971102D01*
X53554041Y-113971736D01*
X53547908Y-113971770D01*
X53541801Y-113971202D01*
X53535779Y-113970038D01*
X53529900Y-113968289D01*
X53524220Y-113965973D01*
X53410932Y-113913146D01*
X53405507Y-113910285D01*
X53400389Y-113906905D01*
X53395627Y-113903040D01*
X53391266Y-113898726D01*
X53387349Y-113894006D01*
X53383914Y-113888925D01*
X53380993Y-113883532D01*
X53378615Y-113877878D01*
X53376803Y-113872019D01*
X53375573Y-113866010D01*
X53374939Y-113859909D01*
X53374905Y-113853776D01*
X53375473Y-113847669D01*
X53376637Y-113841647D01*
X53378386Y-113835768D01*
X53380702Y-113830088D01*
X53644838Y-113263645D01*
X53647699Y-113258220D01*
X53651079Y-113253102D01*
X53654944Y-113248340D01*
X53659258Y-113243979D01*
X53663977Y-113240062D01*
X53669059Y-113236627D01*
X53674452Y-113233706D01*
X53680106Y-113231328D01*
X53685965Y-113229516D01*
X53691974Y-113228286D01*
X53698075Y-113227652D01*
X53704208Y-113227618D01*
X53710315Y-113228186D01*
X53710315Y-113228186D01*
G37*
D37*
X53626058Y-113599694D03*
D36*
G36*
X53257162Y-113016877D02*
G01*
X53263184Y-113018041D01*
X53269063Y-113019790D01*
X53274743Y-113022106D01*
X53388031Y-113074933D01*
X53393456Y-113077794D01*
X53398574Y-113081174D01*
X53403336Y-113085039D01*
X53407697Y-113089353D01*
X53411614Y-113094073D01*
X53415049Y-113099154D01*
X53417970Y-113104547D01*
X53420348Y-113110201D01*
X53422160Y-113116060D01*
X53423390Y-113122069D01*
X53424024Y-113128170D01*
X53424058Y-113134303D01*
X53423490Y-113140410D01*
X53422326Y-113146432D01*
X53420577Y-113152311D01*
X53418261Y-113157991D01*
X53154125Y-113724434D01*
X53151264Y-113729859D01*
X53147884Y-113734977D01*
X53144019Y-113739739D01*
X53139705Y-113744100D01*
X53134986Y-113748017D01*
X53129904Y-113751452D01*
X53124511Y-113754373D01*
X53118857Y-113756751D01*
X53112998Y-113758563D01*
X53106989Y-113759793D01*
X53100888Y-113760427D01*
X53094755Y-113760461D01*
X53088648Y-113759893D01*
X53082626Y-113758729D01*
X53076747Y-113756980D01*
X53071067Y-113754664D01*
X52957779Y-113701837D01*
X52952354Y-113698976D01*
X52947236Y-113695596D01*
X52942474Y-113691731D01*
X52938113Y-113687417D01*
X52934196Y-113682697D01*
X52930761Y-113677616D01*
X52927840Y-113672223D01*
X52925462Y-113666569D01*
X52923650Y-113660710D01*
X52922420Y-113654701D01*
X52921786Y-113648600D01*
X52921752Y-113642467D01*
X52922320Y-113636360D01*
X52923484Y-113630338D01*
X52925233Y-113624459D01*
X52927549Y-113618779D01*
X53191685Y-113052336D01*
X53194546Y-113046911D01*
X53197926Y-113041793D01*
X53201791Y-113037031D01*
X53206105Y-113032670D01*
X53210824Y-113028753D01*
X53215906Y-113025318D01*
X53221299Y-113022397D01*
X53226953Y-113020019D01*
X53232812Y-113018207D01*
X53238821Y-113016977D01*
X53244922Y-113016343D01*
X53251055Y-113016309D01*
X53257162Y-113016877D01*
X53257162Y-113016877D01*
G37*
D37*
X53172905Y-113388385D03*
D36*
G36*
X52804008Y-112805567D02*
G01*
X52810030Y-112806731D01*
X52815909Y-112808480D01*
X52821589Y-112810796D01*
X52934877Y-112863623D01*
X52940302Y-112866484D01*
X52945420Y-112869864D01*
X52950182Y-112873729D01*
X52954543Y-112878043D01*
X52958460Y-112882763D01*
X52961895Y-112887844D01*
X52964816Y-112893237D01*
X52967194Y-112898891D01*
X52969006Y-112904750D01*
X52970236Y-112910759D01*
X52970870Y-112916860D01*
X52970904Y-112922993D01*
X52970336Y-112929100D01*
X52969172Y-112935122D01*
X52967423Y-112941001D01*
X52965107Y-112946681D01*
X52700971Y-113513124D01*
X52698110Y-113518549D01*
X52694730Y-113523667D01*
X52690865Y-113528429D01*
X52686551Y-113532790D01*
X52681832Y-113536707D01*
X52676750Y-113540142D01*
X52671357Y-113543063D01*
X52665703Y-113545441D01*
X52659844Y-113547253D01*
X52653835Y-113548483D01*
X52647734Y-113549117D01*
X52641601Y-113549151D01*
X52635494Y-113548583D01*
X52629472Y-113547419D01*
X52623593Y-113545670D01*
X52617913Y-113543354D01*
X52504625Y-113490527D01*
X52499200Y-113487666D01*
X52494082Y-113484286D01*
X52489320Y-113480421D01*
X52484959Y-113476107D01*
X52481042Y-113471387D01*
X52477607Y-113466306D01*
X52474686Y-113460913D01*
X52472308Y-113455259D01*
X52470496Y-113449400D01*
X52469266Y-113443391D01*
X52468632Y-113437290D01*
X52468598Y-113431157D01*
X52469166Y-113425050D01*
X52470330Y-113419028D01*
X52472079Y-113413149D01*
X52474395Y-113407469D01*
X52738531Y-112841026D01*
X52741392Y-112835601D01*
X52744772Y-112830483D01*
X52748637Y-112825721D01*
X52752951Y-112821360D01*
X52757670Y-112817443D01*
X52762752Y-112814008D01*
X52768145Y-112811087D01*
X52773799Y-112808709D01*
X52779658Y-112806897D01*
X52785667Y-112805667D01*
X52791768Y-112805033D01*
X52797901Y-112804999D01*
X52804008Y-112805567D01*
X52804008Y-112805567D01*
G37*
D37*
X52719751Y-113177075D03*
D36*
G36*
X52350854Y-112594258D02*
G01*
X52356876Y-112595422D01*
X52362755Y-112597171D01*
X52368435Y-112599487D01*
X52481723Y-112652314D01*
X52487148Y-112655175D01*
X52492266Y-112658555D01*
X52497028Y-112662420D01*
X52501389Y-112666734D01*
X52505306Y-112671454D01*
X52508741Y-112676535D01*
X52511662Y-112681928D01*
X52514040Y-112687582D01*
X52515852Y-112693441D01*
X52517082Y-112699450D01*
X52517716Y-112705551D01*
X52517750Y-112711684D01*
X52517182Y-112717791D01*
X52516018Y-112723813D01*
X52514269Y-112729692D01*
X52511953Y-112735372D01*
X52247817Y-113301815D01*
X52244956Y-113307240D01*
X52241576Y-113312358D01*
X52237711Y-113317120D01*
X52233397Y-113321481D01*
X52228678Y-113325398D01*
X52223596Y-113328833D01*
X52218203Y-113331754D01*
X52212549Y-113334132D01*
X52206690Y-113335944D01*
X52200681Y-113337174D01*
X52194580Y-113337808D01*
X52188447Y-113337842D01*
X52182340Y-113337274D01*
X52176318Y-113336110D01*
X52170439Y-113334361D01*
X52164759Y-113332045D01*
X52051471Y-113279218D01*
X52046046Y-113276357D01*
X52040928Y-113272977D01*
X52036166Y-113269112D01*
X52031805Y-113264798D01*
X52027888Y-113260078D01*
X52024453Y-113254997D01*
X52021532Y-113249604D01*
X52019154Y-113243950D01*
X52017342Y-113238091D01*
X52016112Y-113232082D01*
X52015478Y-113225981D01*
X52015444Y-113219848D01*
X52016012Y-113213741D01*
X52017176Y-113207719D01*
X52018925Y-113201840D01*
X52021241Y-113196160D01*
X52285377Y-112629717D01*
X52288238Y-112624292D01*
X52291618Y-112619174D01*
X52295483Y-112614412D01*
X52299797Y-112610051D01*
X52304516Y-112606134D01*
X52309598Y-112602699D01*
X52314991Y-112599778D01*
X52320645Y-112597400D01*
X52326504Y-112595588D01*
X52332513Y-112594358D01*
X52338614Y-112593724D01*
X52344747Y-112593690D01*
X52350854Y-112594258D01*
X52350854Y-112594258D01*
G37*
D37*
X52266597Y-112965766D03*
D36*
G36*
X51897700Y-112382949D02*
G01*
X51903722Y-112384113D01*
X51909601Y-112385862D01*
X51915281Y-112388178D01*
X52028569Y-112441005D01*
X52033994Y-112443866D01*
X52039112Y-112447246D01*
X52043874Y-112451111D01*
X52048235Y-112455425D01*
X52052152Y-112460145D01*
X52055587Y-112465226D01*
X52058508Y-112470619D01*
X52060886Y-112476273D01*
X52062698Y-112482132D01*
X52063928Y-112488141D01*
X52064562Y-112494242D01*
X52064596Y-112500375D01*
X52064028Y-112506482D01*
X52062864Y-112512504D01*
X52061115Y-112518383D01*
X52058799Y-112524063D01*
X51794663Y-113090506D01*
X51791802Y-113095931D01*
X51788422Y-113101049D01*
X51784557Y-113105811D01*
X51780243Y-113110172D01*
X51775524Y-113114089D01*
X51770442Y-113117524D01*
X51765049Y-113120445D01*
X51759395Y-113122823D01*
X51753536Y-113124635D01*
X51747527Y-113125865D01*
X51741426Y-113126499D01*
X51735293Y-113126533D01*
X51729186Y-113125965D01*
X51723164Y-113124801D01*
X51717285Y-113123052D01*
X51711605Y-113120736D01*
X51598317Y-113067909D01*
X51592892Y-113065048D01*
X51587774Y-113061668D01*
X51583012Y-113057803D01*
X51578651Y-113053489D01*
X51574734Y-113048769D01*
X51571299Y-113043688D01*
X51568378Y-113038295D01*
X51566000Y-113032641D01*
X51564188Y-113026782D01*
X51562958Y-113020773D01*
X51562324Y-113014672D01*
X51562290Y-113008539D01*
X51562858Y-113002432D01*
X51564022Y-112996410D01*
X51565771Y-112990531D01*
X51568087Y-112984851D01*
X51832223Y-112418408D01*
X51835084Y-112412983D01*
X51838464Y-112407865D01*
X51842329Y-112403103D01*
X51846643Y-112398742D01*
X51851362Y-112394825D01*
X51856444Y-112391390D01*
X51861837Y-112388469D01*
X51867491Y-112386091D01*
X51873350Y-112384279D01*
X51879359Y-112383049D01*
X51885460Y-112382415D01*
X51891593Y-112382381D01*
X51897700Y-112382949D01*
X51897700Y-112382949D01*
G37*
D37*
X51813443Y-112754457D03*
D36*
G36*
X51444546Y-112171640D02*
G01*
X51450568Y-112172804D01*
X51456447Y-112174553D01*
X51462127Y-112176869D01*
X51575415Y-112229696D01*
X51580840Y-112232557D01*
X51585958Y-112235937D01*
X51590720Y-112239802D01*
X51595081Y-112244116D01*
X51598998Y-112248836D01*
X51602433Y-112253917D01*
X51605354Y-112259310D01*
X51607732Y-112264964D01*
X51609544Y-112270823D01*
X51610774Y-112276832D01*
X51611408Y-112282933D01*
X51611442Y-112289066D01*
X51610874Y-112295173D01*
X51609710Y-112301195D01*
X51607961Y-112307074D01*
X51605645Y-112312754D01*
X51341509Y-112879197D01*
X51338648Y-112884622D01*
X51335268Y-112889740D01*
X51331403Y-112894502D01*
X51327089Y-112898863D01*
X51322370Y-112902780D01*
X51317288Y-112906215D01*
X51311895Y-112909136D01*
X51306241Y-112911514D01*
X51300382Y-112913326D01*
X51294373Y-112914556D01*
X51288272Y-112915190D01*
X51282139Y-112915224D01*
X51276032Y-112914656D01*
X51270010Y-112913492D01*
X51264131Y-112911743D01*
X51258451Y-112909427D01*
X51145163Y-112856600D01*
X51139738Y-112853739D01*
X51134620Y-112850359D01*
X51129858Y-112846494D01*
X51125497Y-112842180D01*
X51121580Y-112837460D01*
X51118145Y-112832379D01*
X51115224Y-112826986D01*
X51112846Y-112821332D01*
X51111034Y-112815473D01*
X51109804Y-112809464D01*
X51109170Y-112803363D01*
X51109136Y-112797230D01*
X51109704Y-112791123D01*
X51110868Y-112785101D01*
X51112617Y-112779222D01*
X51114933Y-112773542D01*
X51379069Y-112207099D01*
X51381930Y-112201674D01*
X51385310Y-112196556D01*
X51389175Y-112191794D01*
X51393489Y-112187433D01*
X51398208Y-112183516D01*
X51403290Y-112180081D01*
X51408683Y-112177160D01*
X51414337Y-112174782D01*
X51420196Y-112172970D01*
X51426205Y-112171740D01*
X51432306Y-112171106D01*
X51438439Y-112171072D01*
X51444546Y-112171640D01*
X51444546Y-112171640D01*
G37*
D37*
X51360289Y-112543148D03*
D36*
G36*
X50991392Y-111960331D02*
G01*
X50997414Y-111961495D01*
X51003293Y-111963244D01*
X51008973Y-111965560D01*
X51122261Y-112018387D01*
X51127686Y-112021248D01*
X51132804Y-112024628D01*
X51137566Y-112028493D01*
X51141927Y-112032807D01*
X51145844Y-112037527D01*
X51149279Y-112042608D01*
X51152200Y-112048001D01*
X51154578Y-112053655D01*
X51156390Y-112059514D01*
X51157620Y-112065523D01*
X51158254Y-112071624D01*
X51158288Y-112077757D01*
X51157720Y-112083864D01*
X51156556Y-112089886D01*
X51154807Y-112095765D01*
X51152491Y-112101445D01*
X50888355Y-112667888D01*
X50885494Y-112673313D01*
X50882114Y-112678431D01*
X50878249Y-112683193D01*
X50873935Y-112687554D01*
X50869216Y-112691471D01*
X50864134Y-112694906D01*
X50858741Y-112697827D01*
X50853087Y-112700205D01*
X50847228Y-112702017D01*
X50841219Y-112703247D01*
X50835118Y-112703881D01*
X50828985Y-112703915D01*
X50822878Y-112703347D01*
X50816856Y-112702183D01*
X50810977Y-112700434D01*
X50805297Y-112698118D01*
X50692009Y-112645291D01*
X50686584Y-112642430D01*
X50681466Y-112639050D01*
X50676704Y-112635185D01*
X50672343Y-112630871D01*
X50668426Y-112626151D01*
X50664991Y-112621070D01*
X50662070Y-112615677D01*
X50659692Y-112610023D01*
X50657880Y-112604164D01*
X50656650Y-112598155D01*
X50656016Y-112592054D01*
X50655982Y-112585921D01*
X50656550Y-112579814D01*
X50657714Y-112573792D01*
X50659463Y-112567913D01*
X50661779Y-112562233D01*
X50925915Y-111995790D01*
X50928776Y-111990365D01*
X50932156Y-111985247D01*
X50936021Y-111980485D01*
X50940335Y-111976124D01*
X50945054Y-111972207D01*
X50950136Y-111968772D01*
X50955529Y-111965851D01*
X50961183Y-111963473D01*
X50967042Y-111961661D01*
X50973051Y-111960431D01*
X50979152Y-111959797D01*
X50985285Y-111959763D01*
X50991392Y-111960331D01*
X50991392Y-111960331D01*
G37*
D37*
X50907135Y-112331839D03*
D36*
G36*
X50538238Y-111749022D02*
G01*
X50544260Y-111750186D01*
X50550139Y-111751935D01*
X50555819Y-111754251D01*
X50669107Y-111807078D01*
X50674532Y-111809939D01*
X50679650Y-111813319D01*
X50684412Y-111817184D01*
X50688773Y-111821498D01*
X50692690Y-111826218D01*
X50696125Y-111831299D01*
X50699046Y-111836692D01*
X50701424Y-111842346D01*
X50703236Y-111848205D01*
X50704466Y-111854214D01*
X50705100Y-111860315D01*
X50705134Y-111866448D01*
X50704566Y-111872555D01*
X50703402Y-111878577D01*
X50701653Y-111884456D01*
X50699337Y-111890136D01*
X50435201Y-112456579D01*
X50432340Y-112462004D01*
X50428960Y-112467122D01*
X50425095Y-112471884D01*
X50420781Y-112476245D01*
X50416062Y-112480162D01*
X50410980Y-112483597D01*
X50405587Y-112486518D01*
X50399933Y-112488896D01*
X50394074Y-112490708D01*
X50388065Y-112491938D01*
X50381964Y-112492572D01*
X50375831Y-112492606D01*
X50369724Y-112492038D01*
X50363702Y-112490874D01*
X50357823Y-112489125D01*
X50352143Y-112486809D01*
X50238855Y-112433982D01*
X50233430Y-112431121D01*
X50228312Y-112427741D01*
X50223550Y-112423876D01*
X50219189Y-112419562D01*
X50215272Y-112414842D01*
X50211837Y-112409761D01*
X50208916Y-112404368D01*
X50206538Y-112398714D01*
X50204726Y-112392855D01*
X50203496Y-112386846D01*
X50202862Y-112380745D01*
X50202828Y-112374612D01*
X50203396Y-112368505D01*
X50204560Y-112362483D01*
X50206309Y-112356604D01*
X50208625Y-112350924D01*
X50472761Y-111784481D01*
X50475622Y-111779056D01*
X50479002Y-111773938D01*
X50482867Y-111769176D01*
X50487181Y-111764815D01*
X50491900Y-111760898D01*
X50496982Y-111757463D01*
X50502375Y-111754542D01*
X50508029Y-111752164D01*
X50513888Y-111750352D01*
X50519897Y-111749122D01*
X50525998Y-111748488D01*
X50532131Y-111748454D01*
X50538238Y-111749022D01*
X50538238Y-111749022D01*
G37*
D37*
X50453981Y-112120530D03*
D36*
G36*
X49855331Y-110906473D02*
G01*
X49861353Y-110907637D01*
X49867232Y-110909386D01*
X49872912Y-110911702D01*
X50439355Y-111175838D01*
X50444780Y-111178699D01*
X50449898Y-111182079D01*
X50454660Y-111185944D01*
X50459021Y-111190258D01*
X50462938Y-111194977D01*
X50466373Y-111200059D01*
X50469294Y-111205452D01*
X50471672Y-111211106D01*
X50473484Y-111216965D01*
X50474714Y-111222974D01*
X50475348Y-111229075D01*
X50475382Y-111235208D01*
X50474814Y-111241315D01*
X50473650Y-111247337D01*
X50471901Y-111253216D01*
X50469585Y-111258896D01*
X50416758Y-111372184D01*
X50413897Y-111377609D01*
X50410517Y-111382727D01*
X50406652Y-111387489D01*
X50402338Y-111391850D01*
X50397618Y-111395767D01*
X50392537Y-111399202D01*
X50387144Y-111402123D01*
X50381490Y-111404501D01*
X50375631Y-111406313D01*
X50369622Y-111407543D01*
X50363521Y-111408177D01*
X50357388Y-111408211D01*
X50351281Y-111407643D01*
X50345259Y-111406479D01*
X50339380Y-111404730D01*
X50333700Y-111402414D01*
X49767257Y-111138278D01*
X49761832Y-111135417D01*
X49756714Y-111132037D01*
X49751952Y-111128172D01*
X49747591Y-111123858D01*
X49743674Y-111119139D01*
X49740239Y-111114057D01*
X49737318Y-111108664D01*
X49734940Y-111103010D01*
X49733128Y-111097151D01*
X49731898Y-111091142D01*
X49731264Y-111085041D01*
X49731230Y-111078908D01*
X49731798Y-111072801D01*
X49732962Y-111066779D01*
X49734711Y-111060900D01*
X49737027Y-111055220D01*
X49789854Y-110941932D01*
X49792715Y-110936507D01*
X49796095Y-110931389D01*
X49799960Y-110926627D01*
X49804274Y-110922266D01*
X49808994Y-110918349D01*
X49814075Y-110914914D01*
X49819468Y-110911993D01*
X49825122Y-110909615D01*
X49830981Y-110907803D01*
X49836990Y-110906573D01*
X49843091Y-110905939D01*
X49849224Y-110905905D01*
X49855331Y-110906473D01*
X49855331Y-110906473D01*
G37*
D37*
X50103306Y-111157058D03*
D36*
G36*
X50066640Y-110453320D02*
G01*
X50072662Y-110454484D01*
X50078541Y-110456233D01*
X50084221Y-110458549D01*
X50650664Y-110722685D01*
X50656089Y-110725546D01*
X50661207Y-110728926D01*
X50665969Y-110732791D01*
X50670330Y-110737105D01*
X50674247Y-110741824D01*
X50677682Y-110746906D01*
X50680603Y-110752299D01*
X50682981Y-110757953D01*
X50684793Y-110763812D01*
X50686023Y-110769821D01*
X50686657Y-110775922D01*
X50686691Y-110782055D01*
X50686123Y-110788162D01*
X50684959Y-110794184D01*
X50683210Y-110800063D01*
X50680894Y-110805743D01*
X50628067Y-110919031D01*
X50625206Y-110924456D01*
X50621826Y-110929574D01*
X50617961Y-110934336D01*
X50613647Y-110938697D01*
X50608927Y-110942614D01*
X50603846Y-110946049D01*
X50598453Y-110948970D01*
X50592799Y-110951348D01*
X50586940Y-110953160D01*
X50580931Y-110954390D01*
X50574830Y-110955024D01*
X50568697Y-110955058D01*
X50562590Y-110954490D01*
X50556568Y-110953326D01*
X50550689Y-110951577D01*
X50545009Y-110949261D01*
X49978566Y-110685125D01*
X49973141Y-110682264D01*
X49968023Y-110678884D01*
X49963261Y-110675019D01*
X49958900Y-110670705D01*
X49954983Y-110665986D01*
X49951548Y-110660904D01*
X49948627Y-110655511D01*
X49946249Y-110649857D01*
X49944437Y-110643998D01*
X49943207Y-110637989D01*
X49942573Y-110631888D01*
X49942539Y-110625755D01*
X49943107Y-110619648D01*
X49944271Y-110613626D01*
X49946020Y-110607747D01*
X49948336Y-110602067D01*
X50001163Y-110488779D01*
X50004024Y-110483354D01*
X50007404Y-110478236D01*
X50011269Y-110473474D01*
X50015583Y-110469113D01*
X50020303Y-110465196D01*
X50025384Y-110461761D01*
X50030777Y-110458840D01*
X50036431Y-110456462D01*
X50042290Y-110454650D01*
X50048299Y-110453420D01*
X50054400Y-110452786D01*
X50060533Y-110452752D01*
X50066640Y-110453320D01*
X50066640Y-110453320D01*
G37*
D37*
X50314615Y-110703905D03*
D36*
G36*
X50277950Y-110000166D02*
G01*
X50283972Y-110001330D01*
X50289851Y-110003079D01*
X50295531Y-110005395D01*
X50861974Y-110269531D01*
X50867399Y-110272392D01*
X50872517Y-110275772D01*
X50877279Y-110279637D01*
X50881640Y-110283951D01*
X50885557Y-110288670D01*
X50888992Y-110293752D01*
X50891913Y-110299145D01*
X50894291Y-110304799D01*
X50896103Y-110310658D01*
X50897333Y-110316667D01*
X50897967Y-110322768D01*
X50898001Y-110328901D01*
X50897433Y-110335008D01*
X50896269Y-110341030D01*
X50894520Y-110346909D01*
X50892204Y-110352589D01*
X50839377Y-110465877D01*
X50836516Y-110471302D01*
X50833136Y-110476420D01*
X50829271Y-110481182D01*
X50824957Y-110485543D01*
X50820237Y-110489460D01*
X50815156Y-110492895D01*
X50809763Y-110495816D01*
X50804109Y-110498194D01*
X50798250Y-110500006D01*
X50792241Y-110501236D01*
X50786140Y-110501870D01*
X50780007Y-110501904D01*
X50773900Y-110501336D01*
X50767878Y-110500172D01*
X50761999Y-110498423D01*
X50756319Y-110496107D01*
X50189876Y-110231971D01*
X50184451Y-110229110D01*
X50179333Y-110225730D01*
X50174571Y-110221865D01*
X50170210Y-110217551D01*
X50166293Y-110212832D01*
X50162858Y-110207750D01*
X50159937Y-110202357D01*
X50157559Y-110196703D01*
X50155747Y-110190844D01*
X50154517Y-110184835D01*
X50153883Y-110178734D01*
X50153849Y-110172601D01*
X50154417Y-110166494D01*
X50155581Y-110160472D01*
X50157330Y-110154593D01*
X50159646Y-110148913D01*
X50212473Y-110035625D01*
X50215334Y-110030200D01*
X50218714Y-110025082D01*
X50222579Y-110020320D01*
X50226893Y-110015959D01*
X50231613Y-110012042D01*
X50236694Y-110008607D01*
X50242087Y-110005686D01*
X50247741Y-110003308D01*
X50253600Y-110001496D01*
X50259609Y-110000266D01*
X50265710Y-109999632D01*
X50271843Y-109999598D01*
X50277950Y-110000166D01*
X50277950Y-110000166D01*
G37*
D37*
X50525925Y-110250751D03*
D36*
G36*
X50489259Y-109547012D02*
G01*
X50495281Y-109548176D01*
X50501160Y-109549925D01*
X50506840Y-109552241D01*
X51073283Y-109816377D01*
X51078708Y-109819238D01*
X51083826Y-109822618D01*
X51088588Y-109826483D01*
X51092949Y-109830797D01*
X51096866Y-109835516D01*
X51100301Y-109840598D01*
X51103222Y-109845991D01*
X51105600Y-109851645D01*
X51107412Y-109857504D01*
X51108642Y-109863513D01*
X51109276Y-109869614D01*
X51109310Y-109875747D01*
X51108742Y-109881854D01*
X51107578Y-109887876D01*
X51105829Y-109893755D01*
X51103513Y-109899435D01*
X51050686Y-110012723D01*
X51047825Y-110018148D01*
X51044445Y-110023266D01*
X51040580Y-110028028D01*
X51036266Y-110032389D01*
X51031546Y-110036306D01*
X51026465Y-110039741D01*
X51021072Y-110042662D01*
X51015418Y-110045040D01*
X51009559Y-110046852D01*
X51003550Y-110048082D01*
X50997449Y-110048716D01*
X50991316Y-110048750D01*
X50985209Y-110048182D01*
X50979187Y-110047018D01*
X50973308Y-110045269D01*
X50967628Y-110042953D01*
X50401185Y-109778817D01*
X50395760Y-109775956D01*
X50390642Y-109772576D01*
X50385880Y-109768711D01*
X50381519Y-109764397D01*
X50377602Y-109759678D01*
X50374167Y-109754596D01*
X50371246Y-109749203D01*
X50368868Y-109743549D01*
X50367056Y-109737690D01*
X50365826Y-109731681D01*
X50365192Y-109725580D01*
X50365158Y-109719447D01*
X50365726Y-109713340D01*
X50366890Y-109707318D01*
X50368639Y-109701439D01*
X50370955Y-109695759D01*
X50423782Y-109582471D01*
X50426643Y-109577046D01*
X50430023Y-109571928D01*
X50433888Y-109567166D01*
X50438202Y-109562805D01*
X50442922Y-109558888D01*
X50448003Y-109555453D01*
X50453396Y-109552532D01*
X50459050Y-109550154D01*
X50464909Y-109548342D01*
X50470918Y-109547112D01*
X50477019Y-109546478D01*
X50483152Y-109546444D01*
X50489259Y-109547012D01*
X50489259Y-109547012D01*
G37*
D37*
X50737234Y-109797597D03*
D36*
G36*
X50700568Y-109093858D02*
G01*
X50706590Y-109095022D01*
X50712469Y-109096771D01*
X50718149Y-109099087D01*
X51284592Y-109363223D01*
X51290017Y-109366084D01*
X51295135Y-109369464D01*
X51299897Y-109373329D01*
X51304258Y-109377643D01*
X51308175Y-109382362D01*
X51311610Y-109387444D01*
X51314531Y-109392837D01*
X51316909Y-109398491D01*
X51318721Y-109404350D01*
X51319951Y-109410359D01*
X51320585Y-109416460D01*
X51320619Y-109422593D01*
X51320051Y-109428700D01*
X51318887Y-109434722D01*
X51317138Y-109440601D01*
X51314822Y-109446281D01*
X51261995Y-109559569D01*
X51259134Y-109564994D01*
X51255754Y-109570112D01*
X51251889Y-109574874D01*
X51247575Y-109579235D01*
X51242855Y-109583152D01*
X51237774Y-109586587D01*
X51232381Y-109589508D01*
X51226727Y-109591886D01*
X51220868Y-109593698D01*
X51214859Y-109594928D01*
X51208758Y-109595562D01*
X51202625Y-109595596D01*
X51196518Y-109595028D01*
X51190496Y-109593864D01*
X51184617Y-109592115D01*
X51178937Y-109589799D01*
X50612494Y-109325663D01*
X50607069Y-109322802D01*
X50601951Y-109319422D01*
X50597189Y-109315557D01*
X50592828Y-109311243D01*
X50588911Y-109306524D01*
X50585476Y-109301442D01*
X50582555Y-109296049D01*
X50580177Y-109290395D01*
X50578365Y-109284536D01*
X50577135Y-109278527D01*
X50576501Y-109272426D01*
X50576467Y-109266293D01*
X50577035Y-109260186D01*
X50578199Y-109254164D01*
X50579948Y-109248285D01*
X50582264Y-109242605D01*
X50635091Y-109129317D01*
X50637952Y-109123892D01*
X50641332Y-109118774D01*
X50645197Y-109114012D01*
X50649511Y-109109651D01*
X50654231Y-109105734D01*
X50659312Y-109102299D01*
X50664705Y-109099378D01*
X50670359Y-109097000D01*
X50676218Y-109095188D01*
X50682227Y-109093958D01*
X50688328Y-109093324D01*
X50694461Y-109093290D01*
X50700568Y-109093858D01*
X50700568Y-109093858D01*
G37*
D37*
X50948543Y-109344443D03*
D36*
G36*
X50911877Y-108640704D02*
G01*
X50917899Y-108641868D01*
X50923778Y-108643617D01*
X50929458Y-108645933D01*
X51495901Y-108910069D01*
X51501326Y-108912930D01*
X51506444Y-108916310D01*
X51511206Y-108920175D01*
X51515567Y-108924489D01*
X51519484Y-108929208D01*
X51522919Y-108934290D01*
X51525840Y-108939683D01*
X51528218Y-108945337D01*
X51530030Y-108951196D01*
X51531260Y-108957205D01*
X51531894Y-108963306D01*
X51531928Y-108969439D01*
X51531360Y-108975546D01*
X51530196Y-108981568D01*
X51528447Y-108987447D01*
X51526131Y-108993127D01*
X51473304Y-109106415D01*
X51470443Y-109111840D01*
X51467063Y-109116958D01*
X51463198Y-109121720D01*
X51458884Y-109126081D01*
X51454164Y-109129998D01*
X51449083Y-109133433D01*
X51443690Y-109136354D01*
X51438036Y-109138732D01*
X51432177Y-109140544D01*
X51426168Y-109141774D01*
X51420067Y-109142408D01*
X51413934Y-109142442D01*
X51407827Y-109141874D01*
X51401805Y-109140710D01*
X51395926Y-109138961D01*
X51390246Y-109136645D01*
X50823803Y-108872509D01*
X50818378Y-108869648D01*
X50813260Y-108866268D01*
X50808498Y-108862403D01*
X50804137Y-108858089D01*
X50800220Y-108853370D01*
X50796785Y-108848288D01*
X50793864Y-108842895D01*
X50791486Y-108837241D01*
X50789674Y-108831382D01*
X50788444Y-108825373D01*
X50787810Y-108819272D01*
X50787776Y-108813139D01*
X50788344Y-108807032D01*
X50789508Y-108801010D01*
X50791257Y-108795131D01*
X50793573Y-108789451D01*
X50846400Y-108676163D01*
X50849261Y-108670738D01*
X50852641Y-108665620D01*
X50856506Y-108660858D01*
X50860820Y-108656497D01*
X50865540Y-108652580D01*
X50870621Y-108649145D01*
X50876014Y-108646224D01*
X50881668Y-108643846D01*
X50887527Y-108642034D01*
X50893536Y-108640804D01*
X50899637Y-108640170D01*
X50905770Y-108640136D01*
X50911877Y-108640704D01*
X50911877Y-108640704D01*
G37*
D37*
X51159852Y-108891289D03*
D36*
G36*
X51123186Y-108187550D02*
G01*
X51129208Y-108188714D01*
X51135087Y-108190463D01*
X51140767Y-108192779D01*
X51707210Y-108456915D01*
X51712635Y-108459776D01*
X51717753Y-108463156D01*
X51722515Y-108467021D01*
X51726876Y-108471335D01*
X51730793Y-108476054D01*
X51734228Y-108481136D01*
X51737149Y-108486529D01*
X51739527Y-108492183D01*
X51741339Y-108498042D01*
X51742569Y-108504051D01*
X51743203Y-108510152D01*
X51743237Y-108516285D01*
X51742669Y-108522392D01*
X51741505Y-108528414D01*
X51739756Y-108534293D01*
X51737440Y-108539973D01*
X51684613Y-108653261D01*
X51681752Y-108658686D01*
X51678372Y-108663804D01*
X51674507Y-108668566D01*
X51670193Y-108672927D01*
X51665473Y-108676844D01*
X51660392Y-108680279D01*
X51654999Y-108683200D01*
X51649345Y-108685578D01*
X51643486Y-108687390D01*
X51637477Y-108688620D01*
X51631376Y-108689254D01*
X51625243Y-108689288D01*
X51619136Y-108688720D01*
X51613114Y-108687556D01*
X51607235Y-108685807D01*
X51601555Y-108683491D01*
X51035112Y-108419355D01*
X51029687Y-108416494D01*
X51024569Y-108413114D01*
X51019807Y-108409249D01*
X51015446Y-108404935D01*
X51011529Y-108400216D01*
X51008094Y-108395134D01*
X51005173Y-108389741D01*
X51002795Y-108384087D01*
X51000983Y-108378228D01*
X50999753Y-108372219D01*
X50999119Y-108366118D01*
X50999085Y-108359985D01*
X50999653Y-108353878D01*
X51000817Y-108347856D01*
X51002566Y-108341977D01*
X51004882Y-108336297D01*
X51057709Y-108223009D01*
X51060570Y-108217584D01*
X51063950Y-108212466D01*
X51067815Y-108207704D01*
X51072129Y-108203343D01*
X51076849Y-108199426D01*
X51081930Y-108195991D01*
X51087323Y-108193070D01*
X51092977Y-108190692D01*
X51098836Y-108188880D01*
X51104845Y-108187650D01*
X51110946Y-108187016D01*
X51117079Y-108186982D01*
X51123186Y-108187550D01*
X51123186Y-108187550D01*
G37*
D37*
X51371161Y-108438135D03*
D36*
G36*
X51334495Y-107734396D02*
G01*
X51340517Y-107735560D01*
X51346396Y-107737309D01*
X51352076Y-107739625D01*
X51918519Y-108003761D01*
X51923944Y-108006622D01*
X51929062Y-108010002D01*
X51933824Y-108013867D01*
X51938185Y-108018181D01*
X51942102Y-108022900D01*
X51945537Y-108027982D01*
X51948458Y-108033375D01*
X51950836Y-108039029D01*
X51952648Y-108044888D01*
X51953878Y-108050897D01*
X51954512Y-108056998D01*
X51954546Y-108063131D01*
X51953978Y-108069238D01*
X51952814Y-108075260D01*
X51951065Y-108081139D01*
X51948749Y-108086819D01*
X51895922Y-108200107D01*
X51893061Y-108205532D01*
X51889681Y-108210650D01*
X51885816Y-108215412D01*
X51881502Y-108219773D01*
X51876782Y-108223690D01*
X51871701Y-108227125D01*
X51866308Y-108230046D01*
X51860654Y-108232424D01*
X51854795Y-108234236D01*
X51848786Y-108235466D01*
X51842685Y-108236100D01*
X51836552Y-108236134D01*
X51830445Y-108235566D01*
X51824423Y-108234402D01*
X51818544Y-108232653D01*
X51812864Y-108230337D01*
X51246421Y-107966201D01*
X51240996Y-107963340D01*
X51235878Y-107959960D01*
X51231116Y-107956095D01*
X51226755Y-107951781D01*
X51222838Y-107947062D01*
X51219403Y-107941980D01*
X51216482Y-107936587D01*
X51214104Y-107930933D01*
X51212292Y-107925074D01*
X51211062Y-107919065D01*
X51210428Y-107912964D01*
X51210394Y-107906831D01*
X51210962Y-107900724D01*
X51212126Y-107894702D01*
X51213875Y-107888823D01*
X51216191Y-107883143D01*
X51269018Y-107769855D01*
X51271879Y-107764430D01*
X51275259Y-107759312D01*
X51279124Y-107754550D01*
X51283438Y-107750189D01*
X51288158Y-107746272D01*
X51293239Y-107742837D01*
X51298632Y-107739916D01*
X51304286Y-107737538D01*
X51310145Y-107735726D01*
X51316154Y-107734496D01*
X51322255Y-107733862D01*
X51328388Y-107733828D01*
X51334495Y-107734396D01*
X51334495Y-107734396D01*
G37*
D37*
X51582470Y-107984981D03*
D36*
G36*
X52630199Y-107262798D02*
G01*
X52636221Y-107263962D01*
X52642100Y-107265711D01*
X52647780Y-107268027D01*
X52761068Y-107320854D01*
X52766493Y-107323715D01*
X52771611Y-107327095D01*
X52776373Y-107330960D01*
X52780734Y-107335274D01*
X52784651Y-107339994D01*
X52788086Y-107345075D01*
X52791007Y-107350468D01*
X52793385Y-107356122D01*
X52795197Y-107361981D01*
X52796427Y-107367990D01*
X52797061Y-107374091D01*
X52797095Y-107380224D01*
X52796527Y-107386331D01*
X52795363Y-107392353D01*
X52793614Y-107398232D01*
X52791298Y-107403912D01*
X52527162Y-107970355D01*
X52524301Y-107975780D01*
X52520921Y-107980898D01*
X52517056Y-107985660D01*
X52512742Y-107990021D01*
X52508023Y-107993938D01*
X52502941Y-107997373D01*
X52497548Y-108000294D01*
X52491894Y-108002672D01*
X52486035Y-108004484D01*
X52480026Y-108005714D01*
X52473925Y-108006348D01*
X52467792Y-108006382D01*
X52461685Y-108005814D01*
X52455663Y-108004650D01*
X52449784Y-108002901D01*
X52444104Y-108000585D01*
X52330816Y-107947758D01*
X52325391Y-107944897D01*
X52320273Y-107941517D01*
X52315511Y-107937652D01*
X52311150Y-107933338D01*
X52307233Y-107928618D01*
X52303798Y-107923537D01*
X52300877Y-107918144D01*
X52298499Y-107912490D01*
X52296687Y-107906631D01*
X52295457Y-107900622D01*
X52294823Y-107894521D01*
X52294789Y-107888388D01*
X52295357Y-107882281D01*
X52296521Y-107876259D01*
X52298270Y-107870380D01*
X52300586Y-107864700D01*
X52564722Y-107298257D01*
X52567583Y-107292832D01*
X52570963Y-107287714D01*
X52574828Y-107282952D01*
X52579142Y-107278591D01*
X52583861Y-107274674D01*
X52588943Y-107271239D01*
X52594336Y-107268318D01*
X52599990Y-107265940D01*
X52605849Y-107264128D01*
X52611858Y-107262898D01*
X52617959Y-107262264D01*
X52624092Y-107262230D01*
X52630199Y-107262798D01*
X52630199Y-107262798D01*
G37*
D37*
X52545942Y-107634306D03*
D36*
G36*
X53083352Y-107474107D02*
G01*
X53089374Y-107475271D01*
X53095253Y-107477020D01*
X53100933Y-107479336D01*
X53214221Y-107532163D01*
X53219646Y-107535024D01*
X53224764Y-107538404D01*
X53229526Y-107542269D01*
X53233887Y-107546583D01*
X53237804Y-107551303D01*
X53241239Y-107556384D01*
X53244160Y-107561777D01*
X53246538Y-107567431D01*
X53248350Y-107573290D01*
X53249580Y-107579299D01*
X53250214Y-107585400D01*
X53250248Y-107591533D01*
X53249680Y-107597640D01*
X53248516Y-107603662D01*
X53246767Y-107609541D01*
X53244451Y-107615221D01*
X52980315Y-108181664D01*
X52977454Y-108187089D01*
X52974074Y-108192207D01*
X52970209Y-108196969D01*
X52965895Y-108201330D01*
X52961176Y-108205247D01*
X52956094Y-108208682D01*
X52950701Y-108211603D01*
X52945047Y-108213981D01*
X52939188Y-108215793D01*
X52933179Y-108217023D01*
X52927078Y-108217657D01*
X52920945Y-108217691D01*
X52914838Y-108217123D01*
X52908816Y-108215959D01*
X52902937Y-108214210D01*
X52897257Y-108211894D01*
X52783969Y-108159067D01*
X52778544Y-108156206D01*
X52773426Y-108152826D01*
X52768664Y-108148961D01*
X52764303Y-108144647D01*
X52760386Y-108139927D01*
X52756951Y-108134846D01*
X52754030Y-108129453D01*
X52751652Y-108123799D01*
X52749840Y-108117940D01*
X52748610Y-108111931D01*
X52747976Y-108105830D01*
X52747942Y-108099697D01*
X52748510Y-108093590D01*
X52749674Y-108087568D01*
X52751423Y-108081689D01*
X52753739Y-108076009D01*
X53017875Y-107509566D01*
X53020736Y-107504141D01*
X53024116Y-107499023D01*
X53027981Y-107494261D01*
X53032295Y-107489900D01*
X53037014Y-107485983D01*
X53042096Y-107482548D01*
X53047489Y-107479627D01*
X53053143Y-107477249D01*
X53059002Y-107475437D01*
X53065011Y-107474207D01*
X53071112Y-107473573D01*
X53077245Y-107473539D01*
X53083352Y-107474107D01*
X53083352Y-107474107D01*
G37*
D37*
X52999095Y-107845615D03*
D36*
G36*
X53536506Y-107685417D02*
G01*
X53542528Y-107686581D01*
X53548407Y-107688330D01*
X53554087Y-107690646D01*
X53667375Y-107743473D01*
X53672800Y-107746334D01*
X53677918Y-107749714D01*
X53682680Y-107753579D01*
X53687041Y-107757893D01*
X53690958Y-107762613D01*
X53694393Y-107767694D01*
X53697314Y-107773087D01*
X53699692Y-107778741D01*
X53701504Y-107784600D01*
X53702734Y-107790609D01*
X53703368Y-107796710D01*
X53703402Y-107802843D01*
X53702834Y-107808950D01*
X53701670Y-107814972D01*
X53699921Y-107820851D01*
X53697605Y-107826531D01*
X53433469Y-108392974D01*
X53430608Y-108398399D01*
X53427228Y-108403517D01*
X53423363Y-108408279D01*
X53419049Y-108412640D01*
X53414330Y-108416557D01*
X53409248Y-108419992D01*
X53403855Y-108422913D01*
X53398201Y-108425291D01*
X53392342Y-108427103D01*
X53386333Y-108428333D01*
X53380232Y-108428967D01*
X53374099Y-108429001D01*
X53367992Y-108428433D01*
X53361970Y-108427269D01*
X53356091Y-108425520D01*
X53350411Y-108423204D01*
X53237123Y-108370377D01*
X53231698Y-108367516D01*
X53226580Y-108364136D01*
X53221818Y-108360271D01*
X53217457Y-108355957D01*
X53213540Y-108351237D01*
X53210105Y-108346156D01*
X53207184Y-108340763D01*
X53204806Y-108335109D01*
X53202994Y-108329250D01*
X53201764Y-108323241D01*
X53201130Y-108317140D01*
X53201096Y-108311007D01*
X53201664Y-108304900D01*
X53202828Y-108298878D01*
X53204577Y-108292999D01*
X53206893Y-108287319D01*
X53471029Y-107720876D01*
X53473890Y-107715451D01*
X53477270Y-107710333D01*
X53481135Y-107705571D01*
X53485449Y-107701210D01*
X53490168Y-107697293D01*
X53495250Y-107693858D01*
X53500643Y-107690937D01*
X53506297Y-107688559D01*
X53512156Y-107686747D01*
X53518165Y-107685517D01*
X53524266Y-107684883D01*
X53530399Y-107684849D01*
X53536506Y-107685417D01*
X53536506Y-107685417D01*
G37*
D37*
X53452249Y-108056925D03*
D36*
G36*
X53989660Y-107896726D02*
G01*
X53995682Y-107897890D01*
X54001561Y-107899639D01*
X54007241Y-107901955D01*
X54120529Y-107954782D01*
X54125954Y-107957643D01*
X54131072Y-107961023D01*
X54135834Y-107964888D01*
X54140195Y-107969202D01*
X54144112Y-107973922D01*
X54147547Y-107979003D01*
X54150468Y-107984396D01*
X54152846Y-107990050D01*
X54154658Y-107995909D01*
X54155888Y-108001918D01*
X54156522Y-108008019D01*
X54156556Y-108014152D01*
X54155988Y-108020259D01*
X54154824Y-108026281D01*
X54153075Y-108032160D01*
X54150759Y-108037840D01*
X53886623Y-108604283D01*
X53883762Y-108609708D01*
X53880382Y-108614826D01*
X53876517Y-108619588D01*
X53872203Y-108623949D01*
X53867484Y-108627866D01*
X53862402Y-108631301D01*
X53857009Y-108634222D01*
X53851355Y-108636600D01*
X53845496Y-108638412D01*
X53839487Y-108639642D01*
X53833386Y-108640276D01*
X53827253Y-108640310D01*
X53821146Y-108639742D01*
X53815124Y-108638578D01*
X53809245Y-108636829D01*
X53803565Y-108634513D01*
X53690277Y-108581686D01*
X53684852Y-108578825D01*
X53679734Y-108575445D01*
X53674972Y-108571580D01*
X53670611Y-108567266D01*
X53666694Y-108562546D01*
X53663259Y-108557465D01*
X53660338Y-108552072D01*
X53657960Y-108546418D01*
X53656148Y-108540559D01*
X53654918Y-108534550D01*
X53654284Y-108528449D01*
X53654250Y-108522316D01*
X53654818Y-108516209D01*
X53655982Y-108510187D01*
X53657731Y-108504308D01*
X53660047Y-108498628D01*
X53924183Y-107932185D01*
X53927044Y-107926760D01*
X53930424Y-107921642D01*
X53934289Y-107916880D01*
X53938603Y-107912519D01*
X53943322Y-107908602D01*
X53948404Y-107905167D01*
X53953797Y-107902246D01*
X53959451Y-107899868D01*
X53965310Y-107898056D01*
X53971319Y-107896826D01*
X53977420Y-107896192D01*
X53983553Y-107896158D01*
X53989660Y-107896726D01*
X53989660Y-107896726D01*
G37*
D37*
X53905403Y-108268234D03*
D36*
G36*
X54442814Y-108108035D02*
G01*
X54448836Y-108109199D01*
X54454715Y-108110948D01*
X54460395Y-108113264D01*
X54573683Y-108166091D01*
X54579108Y-108168952D01*
X54584226Y-108172332D01*
X54588988Y-108176197D01*
X54593349Y-108180511D01*
X54597266Y-108185231D01*
X54600701Y-108190312D01*
X54603622Y-108195705D01*
X54606000Y-108201359D01*
X54607812Y-108207218D01*
X54609042Y-108213227D01*
X54609676Y-108219328D01*
X54609710Y-108225461D01*
X54609142Y-108231568D01*
X54607978Y-108237590D01*
X54606229Y-108243469D01*
X54603913Y-108249149D01*
X54339777Y-108815592D01*
X54336916Y-108821017D01*
X54333536Y-108826135D01*
X54329671Y-108830897D01*
X54325357Y-108835258D01*
X54320638Y-108839175D01*
X54315556Y-108842610D01*
X54310163Y-108845531D01*
X54304509Y-108847909D01*
X54298650Y-108849721D01*
X54292641Y-108850951D01*
X54286540Y-108851585D01*
X54280407Y-108851619D01*
X54274300Y-108851051D01*
X54268278Y-108849887D01*
X54262399Y-108848138D01*
X54256719Y-108845822D01*
X54143431Y-108792995D01*
X54138006Y-108790134D01*
X54132888Y-108786754D01*
X54128126Y-108782889D01*
X54123765Y-108778575D01*
X54119848Y-108773855D01*
X54116413Y-108768774D01*
X54113492Y-108763381D01*
X54111114Y-108757727D01*
X54109302Y-108751868D01*
X54108072Y-108745859D01*
X54107438Y-108739758D01*
X54107404Y-108733625D01*
X54107972Y-108727518D01*
X54109136Y-108721496D01*
X54110885Y-108715617D01*
X54113201Y-108709937D01*
X54377337Y-108143494D01*
X54380198Y-108138069D01*
X54383578Y-108132951D01*
X54387443Y-108128189D01*
X54391757Y-108123828D01*
X54396476Y-108119911D01*
X54401558Y-108116476D01*
X54406951Y-108113555D01*
X54412605Y-108111177D01*
X54418464Y-108109365D01*
X54424473Y-108108135D01*
X54430574Y-108107501D01*
X54436707Y-108107467D01*
X54442814Y-108108035D01*
X54442814Y-108108035D01*
G37*
D37*
X54358557Y-108479543D03*
D36*
G36*
X54895968Y-108319344D02*
G01*
X54901990Y-108320508D01*
X54907869Y-108322257D01*
X54913549Y-108324573D01*
X55026837Y-108377400D01*
X55032262Y-108380261D01*
X55037380Y-108383641D01*
X55042142Y-108387506D01*
X55046503Y-108391820D01*
X55050420Y-108396540D01*
X55053855Y-108401621D01*
X55056776Y-108407014D01*
X55059154Y-108412668D01*
X55060966Y-108418527D01*
X55062196Y-108424536D01*
X55062830Y-108430637D01*
X55062864Y-108436770D01*
X55062296Y-108442877D01*
X55061132Y-108448899D01*
X55059383Y-108454778D01*
X55057067Y-108460458D01*
X54792931Y-109026901D01*
X54790070Y-109032326D01*
X54786690Y-109037444D01*
X54782825Y-109042206D01*
X54778511Y-109046567D01*
X54773792Y-109050484D01*
X54768710Y-109053919D01*
X54763317Y-109056840D01*
X54757663Y-109059218D01*
X54751804Y-109061030D01*
X54745795Y-109062260D01*
X54739694Y-109062894D01*
X54733561Y-109062928D01*
X54727454Y-109062360D01*
X54721432Y-109061196D01*
X54715553Y-109059447D01*
X54709873Y-109057131D01*
X54596585Y-109004304D01*
X54591160Y-109001443D01*
X54586042Y-108998063D01*
X54581280Y-108994198D01*
X54576919Y-108989884D01*
X54573002Y-108985164D01*
X54569567Y-108980083D01*
X54566646Y-108974690D01*
X54564268Y-108969036D01*
X54562456Y-108963177D01*
X54561226Y-108957168D01*
X54560592Y-108951067D01*
X54560558Y-108944934D01*
X54561126Y-108938827D01*
X54562290Y-108932805D01*
X54564039Y-108926926D01*
X54566355Y-108921246D01*
X54830491Y-108354803D01*
X54833352Y-108349378D01*
X54836732Y-108344260D01*
X54840597Y-108339498D01*
X54844911Y-108335137D01*
X54849630Y-108331220D01*
X54854712Y-108327785D01*
X54860105Y-108324864D01*
X54865759Y-108322486D01*
X54871618Y-108320674D01*
X54877627Y-108319444D01*
X54883728Y-108318810D01*
X54889861Y-108318776D01*
X54895968Y-108319344D01*
X54895968Y-108319344D01*
G37*
D37*
X54811711Y-108690852D03*
D36*
G36*
X55349122Y-108530653D02*
G01*
X55355144Y-108531817D01*
X55361023Y-108533566D01*
X55366703Y-108535882D01*
X55479991Y-108588709D01*
X55485416Y-108591570D01*
X55490534Y-108594950D01*
X55495296Y-108598815D01*
X55499657Y-108603129D01*
X55503574Y-108607849D01*
X55507009Y-108612930D01*
X55509930Y-108618323D01*
X55512308Y-108623977D01*
X55514120Y-108629836D01*
X55515350Y-108635845D01*
X55515984Y-108641946D01*
X55516018Y-108648079D01*
X55515450Y-108654186D01*
X55514286Y-108660208D01*
X55512537Y-108666087D01*
X55510221Y-108671767D01*
X55246085Y-109238210D01*
X55243224Y-109243635D01*
X55239844Y-109248753D01*
X55235979Y-109253515D01*
X55231665Y-109257876D01*
X55226946Y-109261793D01*
X55221864Y-109265228D01*
X55216471Y-109268149D01*
X55210817Y-109270527D01*
X55204958Y-109272339D01*
X55198949Y-109273569D01*
X55192848Y-109274203D01*
X55186715Y-109274237D01*
X55180608Y-109273669D01*
X55174586Y-109272505D01*
X55168707Y-109270756D01*
X55163027Y-109268440D01*
X55049739Y-109215613D01*
X55044314Y-109212752D01*
X55039196Y-109209372D01*
X55034434Y-109205507D01*
X55030073Y-109201193D01*
X55026156Y-109196473D01*
X55022721Y-109191392D01*
X55019800Y-109185999D01*
X55017422Y-109180345D01*
X55015610Y-109174486D01*
X55014380Y-109168477D01*
X55013746Y-109162376D01*
X55013712Y-109156243D01*
X55014280Y-109150136D01*
X55015444Y-109144114D01*
X55017193Y-109138235D01*
X55019509Y-109132555D01*
X55283645Y-108566112D01*
X55286506Y-108560687D01*
X55289886Y-108555569D01*
X55293751Y-108550807D01*
X55298065Y-108546446D01*
X55302784Y-108542529D01*
X55307866Y-108539094D01*
X55313259Y-108536173D01*
X55318913Y-108533795D01*
X55324772Y-108531983D01*
X55330781Y-108530753D01*
X55336882Y-108530119D01*
X55343015Y-108530085D01*
X55349122Y-108530653D01*
X55349122Y-108530653D01*
G37*
D37*
X55264865Y-108902161D03*
D36*
G36*
X55802276Y-108741962D02*
G01*
X55808298Y-108743126D01*
X55814177Y-108744875D01*
X55819857Y-108747191D01*
X55933145Y-108800018D01*
X55938570Y-108802879D01*
X55943688Y-108806259D01*
X55948450Y-108810124D01*
X55952811Y-108814438D01*
X55956728Y-108819158D01*
X55960163Y-108824239D01*
X55963084Y-108829632D01*
X55965462Y-108835286D01*
X55967274Y-108841145D01*
X55968504Y-108847154D01*
X55969138Y-108853255D01*
X55969172Y-108859388D01*
X55968604Y-108865495D01*
X55967440Y-108871517D01*
X55965691Y-108877396D01*
X55963375Y-108883076D01*
X55699239Y-109449519D01*
X55696378Y-109454944D01*
X55692998Y-109460062D01*
X55689133Y-109464824D01*
X55684819Y-109469185D01*
X55680100Y-109473102D01*
X55675018Y-109476537D01*
X55669625Y-109479458D01*
X55663971Y-109481836D01*
X55658112Y-109483648D01*
X55652103Y-109484878D01*
X55646002Y-109485512D01*
X55639869Y-109485546D01*
X55633762Y-109484978D01*
X55627740Y-109483814D01*
X55621861Y-109482065D01*
X55616181Y-109479749D01*
X55502893Y-109426922D01*
X55497468Y-109424061D01*
X55492350Y-109420681D01*
X55487588Y-109416816D01*
X55483227Y-109412502D01*
X55479310Y-109407782D01*
X55475875Y-109402701D01*
X55472954Y-109397308D01*
X55470576Y-109391654D01*
X55468764Y-109385795D01*
X55467534Y-109379786D01*
X55466900Y-109373685D01*
X55466866Y-109367552D01*
X55467434Y-109361445D01*
X55468598Y-109355423D01*
X55470347Y-109349544D01*
X55472663Y-109343864D01*
X55736799Y-108777421D01*
X55739660Y-108771996D01*
X55743040Y-108766878D01*
X55746905Y-108762116D01*
X55751219Y-108757755D01*
X55755938Y-108753838D01*
X55761020Y-108750403D01*
X55766413Y-108747482D01*
X55772067Y-108745104D01*
X55777926Y-108743292D01*
X55783935Y-108742062D01*
X55790036Y-108741428D01*
X55796169Y-108741394D01*
X55802276Y-108741962D01*
X55802276Y-108741962D01*
G37*
D37*
X55718019Y-109113470D03*
D36*
G36*
X55820719Y-109826357D02*
G01*
X55826741Y-109827521D01*
X55832620Y-109829270D01*
X55838300Y-109831586D01*
X56404743Y-110095722D01*
X56410168Y-110098583D01*
X56415286Y-110101963D01*
X56420048Y-110105828D01*
X56424409Y-110110142D01*
X56428326Y-110114861D01*
X56431761Y-110119943D01*
X56434682Y-110125336D01*
X56437060Y-110130990D01*
X56438872Y-110136849D01*
X56440102Y-110142858D01*
X56440736Y-110148959D01*
X56440770Y-110155092D01*
X56440202Y-110161199D01*
X56439038Y-110167221D01*
X56437289Y-110173100D01*
X56434973Y-110178780D01*
X56382146Y-110292068D01*
X56379285Y-110297493D01*
X56375905Y-110302611D01*
X56372040Y-110307373D01*
X56367726Y-110311734D01*
X56363006Y-110315651D01*
X56357925Y-110319086D01*
X56352532Y-110322007D01*
X56346878Y-110324385D01*
X56341019Y-110326197D01*
X56335010Y-110327427D01*
X56328909Y-110328061D01*
X56322776Y-110328095D01*
X56316669Y-110327527D01*
X56310647Y-110326363D01*
X56304768Y-110324614D01*
X56299088Y-110322298D01*
X55732645Y-110058162D01*
X55727220Y-110055301D01*
X55722102Y-110051921D01*
X55717340Y-110048056D01*
X55712979Y-110043742D01*
X55709062Y-110039023D01*
X55705627Y-110033941D01*
X55702706Y-110028548D01*
X55700328Y-110022894D01*
X55698516Y-110017035D01*
X55697286Y-110011026D01*
X55696652Y-110004925D01*
X55696618Y-109998792D01*
X55697186Y-109992685D01*
X55698350Y-109986663D01*
X55700099Y-109980784D01*
X55702415Y-109975104D01*
X55755242Y-109861816D01*
X55758103Y-109856391D01*
X55761483Y-109851273D01*
X55765348Y-109846511D01*
X55769662Y-109842150D01*
X55774382Y-109838233D01*
X55779463Y-109834798D01*
X55784856Y-109831877D01*
X55790510Y-109829499D01*
X55796369Y-109827687D01*
X55802378Y-109826457D01*
X55808479Y-109825823D01*
X55814612Y-109825789D01*
X55820719Y-109826357D01*
X55820719Y-109826357D01*
G37*
D37*
X56068694Y-110076942D03*
D36*
G36*
X55609410Y-110279510D02*
G01*
X55615432Y-110280674D01*
X55621311Y-110282423D01*
X55626991Y-110284739D01*
X56193434Y-110548875D01*
X56198859Y-110551736D01*
X56203977Y-110555116D01*
X56208739Y-110558981D01*
X56213100Y-110563295D01*
X56217017Y-110568014D01*
X56220452Y-110573096D01*
X56223373Y-110578489D01*
X56225751Y-110584143D01*
X56227563Y-110590002D01*
X56228793Y-110596011D01*
X56229427Y-110602112D01*
X56229461Y-110608245D01*
X56228893Y-110614352D01*
X56227729Y-110620374D01*
X56225980Y-110626253D01*
X56223664Y-110631933D01*
X56170837Y-110745221D01*
X56167976Y-110750646D01*
X56164596Y-110755764D01*
X56160731Y-110760526D01*
X56156417Y-110764887D01*
X56151697Y-110768804D01*
X56146616Y-110772239D01*
X56141223Y-110775160D01*
X56135569Y-110777538D01*
X56129710Y-110779350D01*
X56123701Y-110780580D01*
X56117600Y-110781214D01*
X56111467Y-110781248D01*
X56105360Y-110780680D01*
X56099338Y-110779516D01*
X56093459Y-110777767D01*
X56087779Y-110775451D01*
X55521336Y-110511315D01*
X55515911Y-110508454D01*
X55510793Y-110505074D01*
X55506031Y-110501209D01*
X55501670Y-110496895D01*
X55497753Y-110492176D01*
X55494318Y-110487094D01*
X55491397Y-110481701D01*
X55489019Y-110476047D01*
X55487207Y-110470188D01*
X55485977Y-110464179D01*
X55485343Y-110458078D01*
X55485309Y-110451945D01*
X55485877Y-110445838D01*
X55487041Y-110439816D01*
X55488790Y-110433937D01*
X55491106Y-110428257D01*
X55543933Y-110314969D01*
X55546794Y-110309544D01*
X55550174Y-110304426D01*
X55554039Y-110299664D01*
X55558353Y-110295303D01*
X55563073Y-110291386D01*
X55568154Y-110287951D01*
X55573547Y-110285030D01*
X55579201Y-110282652D01*
X55585060Y-110280840D01*
X55591069Y-110279610D01*
X55597170Y-110278976D01*
X55603303Y-110278942D01*
X55609410Y-110279510D01*
X55609410Y-110279510D01*
G37*
D37*
X55857385Y-110530095D03*
D36*
G36*
X55398100Y-110732664D02*
G01*
X55404122Y-110733828D01*
X55410001Y-110735577D01*
X55415681Y-110737893D01*
X55982124Y-111002029D01*
X55987549Y-111004890D01*
X55992667Y-111008270D01*
X55997429Y-111012135D01*
X56001790Y-111016449D01*
X56005707Y-111021168D01*
X56009142Y-111026250D01*
X56012063Y-111031643D01*
X56014441Y-111037297D01*
X56016253Y-111043156D01*
X56017483Y-111049165D01*
X56018117Y-111055266D01*
X56018151Y-111061399D01*
X56017583Y-111067506D01*
X56016419Y-111073528D01*
X56014670Y-111079407D01*
X56012354Y-111085087D01*
X55959527Y-111198375D01*
X55956666Y-111203800D01*
X55953286Y-111208918D01*
X55949421Y-111213680D01*
X55945107Y-111218041D01*
X55940387Y-111221958D01*
X55935306Y-111225393D01*
X55929913Y-111228314D01*
X55924259Y-111230692D01*
X55918400Y-111232504D01*
X55912391Y-111233734D01*
X55906290Y-111234368D01*
X55900157Y-111234402D01*
X55894050Y-111233834D01*
X55888028Y-111232670D01*
X55882149Y-111230921D01*
X55876469Y-111228605D01*
X55310026Y-110964469D01*
X55304601Y-110961608D01*
X55299483Y-110958228D01*
X55294721Y-110954363D01*
X55290360Y-110950049D01*
X55286443Y-110945330D01*
X55283008Y-110940248D01*
X55280087Y-110934855D01*
X55277709Y-110929201D01*
X55275897Y-110923342D01*
X55274667Y-110917333D01*
X55274033Y-110911232D01*
X55273999Y-110905099D01*
X55274567Y-110898992D01*
X55275731Y-110892970D01*
X55277480Y-110887091D01*
X55279796Y-110881411D01*
X55332623Y-110768123D01*
X55335484Y-110762698D01*
X55338864Y-110757580D01*
X55342729Y-110752818D01*
X55347043Y-110748457D01*
X55351763Y-110744540D01*
X55356844Y-110741105D01*
X55362237Y-110738184D01*
X55367891Y-110735806D01*
X55373750Y-110733994D01*
X55379759Y-110732764D01*
X55385860Y-110732130D01*
X55391993Y-110732096D01*
X55398100Y-110732664D01*
X55398100Y-110732664D01*
G37*
D37*
X55646075Y-110983249D03*
D36*
G36*
X55186791Y-111185818D02*
G01*
X55192813Y-111186982D01*
X55198692Y-111188731D01*
X55204372Y-111191047D01*
X55770815Y-111455183D01*
X55776240Y-111458044D01*
X55781358Y-111461424D01*
X55786120Y-111465289D01*
X55790481Y-111469603D01*
X55794398Y-111474322D01*
X55797833Y-111479404D01*
X55800754Y-111484797D01*
X55803132Y-111490451D01*
X55804944Y-111496310D01*
X55806174Y-111502319D01*
X55806808Y-111508420D01*
X55806842Y-111514553D01*
X55806274Y-111520660D01*
X55805110Y-111526682D01*
X55803361Y-111532561D01*
X55801045Y-111538241D01*
X55748218Y-111651529D01*
X55745357Y-111656954D01*
X55741977Y-111662072D01*
X55738112Y-111666834D01*
X55733798Y-111671195D01*
X55729078Y-111675112D01*
X55723997Y-111678547D01*
X55718604Y-111681468D01*
X55712950Y-111683846D01*
X55707091Y-111685658D01*
X55701082Y-111686888D01*
X55694981Y-111687522D01*
X55688848Y-111687556D01*
X55682741Y-111686988D01*
X55676719Y-111685824D01*
X55670840Y-111684075D01*
X55665160Y-111681759D01*
X55098717Y-111417623D01*
X55093292Y-111414762D01*
X55088174Y-111411382D01*
X55083412Y-111407517D01*
X55079051Y-111403203D01*
X55075134Y-111398484D01*
X55071699Y-111393402D01*
X55068778Y-111388009D01*
X55066400Y-111382355D01*
X55064588Y-111376496D01*
X55063358Y-111370487D01*
X55062724Y-111364386D01*
X55062690Y-111358253D01*
X55063258Y-111352146D01*
X55064422Y-111346124D01*
X55066171Y-111340245D01*
X55068487Y-111334565D01*
X55121314Y-111221277D01*
X55124175Y-111215852D01*
X55127555Y-111210734D01*
X55131420Y-111205972D01*
X55135734Y-111201611D01*
X55140454Y-111197694D01*
X55145535Y-111194259D01*
X55150928Y-111191338D01*
X55156582Y-111188960D01*
X55162441Y-111187148D01*
X55168450Y-111185918D01*
X55174551Y-111185284D01*
X55180684Y-111185250D01*
X55186791Y-111185818D01*
X55186791Y-111185818D01*
G37*
D37*
X55434766Y-111436403D03*
D36*
G36*
X54975482Y-111638972D02*
G01*
X54981504Y-111640136D01*
X54987383Y-111641885D01*
X54993063Y-111644201D01*
X55559506Y-111908337D01*
X55564931Y-111911198D01*
X55570049Y-111914578D01*
X55574811Y-111918443D01*
X55579172Y-111922757D01*
X55583089Y-111927476D01*
X55586524Y-111932558D01*
X55589445Y-111937951D01*
X55591823Y-111943605D01*
X55593635Y-111949464D01*
X55594865Y-111955473D01*
X55595499Y-111961574D01*
X55595533Y-111967707D01*
X55594965Y-111973814D01*
X55593801Y-111979836D01*
X55592052Y-111985715D01*
X55589736Y-111991395D01*
X55536909Y-112104683D01*
X55534048Y-112110108D01*
X55530668Y-112115226D01*
X55526803Y-112119988D01*
X55522489Y-112124349D01*
X55517769Y-112128266D01*
X55512688Y-112131701D01*
X55507295Y-112134622D01*
X55501641Y-112137000D01*
X55495782Y-112138812D01*
X55489773Y-112140042D01*
X55483672Y-112140676D01*
X55477539Y-112140710D01*
X55471432Y-112140142D01*
X55465410Y-112138978D01*
X55459531Y-112137229D01*
X55453851Y-112134913D01*
X54887408Y-111870777D01*
X54881983Y-111867916D01*
X54876865Y-111864536D01*
X54872103Y-111860671D01*
X54867742Y-111856357D01*
X54863825Y-111851638D01*
X54860390Y-111846556D01*
X54857469Y-111841163D01*
X54855091Y-111835509D01*
X54853279Y-111829650D01*
X54852049Y-111823641D01*
X54851415Y-111817540D01*
X54851381Y-111811407D01*
X54851949Y-111805300D01*
X54853113Y-111799278D01*
X54854862Y-111793399D01*
X54857178Y-111787719D01*
X54910005Y-111674431D01*
X54912866Y-111669006D01*
X54916246Y-111663888D01*
X54920111Y-111659126D01*
X54924425Y-111654765D01*
X54929145Y-111650848D01*
X54934226Y-111647413D01*
X54939619Y-111644492D01*
X54945273Y-111642114D01*
X54951132Y-111640302D01*
X54957141Y-111639072D01*
X54963242Y-111638438D01*
X54969375Y-111638404D01*
X54975482Y-111638972D01*
X54975482Y-111638972D01*
G37*
D37*
X55223457Y-111889557D03*
D36*
G36*
X54764173Y-112092126D02*
G01*
X54770195Y-112093290D01*
X54776074Y-112095039D01*
X54781754Y-112097355D01*
X55348197Y-112361491D01*
X55353622Y-112364352D01*
X55358740Y-112367732D01*
X55363502Y-112371597D01*
X55367863Y-112375911D01*
X55371780Y-112380630D01*
X55375215Y-112385712D01*
X55378136Y-112391105D01*
X55380514Y-112396759D01*
X55382326Y-112402618D01*
X55383556Y-112408627D01*
X55384190Y-112414728D01*
X55384224Y-112420861D01*
X55383656Y-112426968D01*
X55382492Y-112432990D01*
X55380743Y-112438869D01*
X55378427Y-112444549D01*
X55325600Y-112557837D01*
X55322739Y-112563262D01*
X55319359Y-112568380D01*
X55315494Y-112573142D01*
X55311180Y-112577503D01*
X55306460Y-112581420D01*
X55301379Y-112584855D01*
X55295986Y-112587776D01*
X55290332Y-112590154D01*
X55284473Y-112591966D01*
X55278464Y-112593196D01*
X55272363Y-112593830D01*
X55266230Y-112593864D01*
X55260123Y-112593296D01*
X55254101Y-112592132D01*
X55248222Y-112590383D01*
X55242542Y-112588067D01*
X54676099Y-112323931D01*
X54670674Y-112321070D01*
X54665556Y-112317690D01*
X54660794Y-112313825D01*
X54656433Y-112309511D01*
X54652516Y-112304792D01*
X54649081Y-112299710D01*
X54646160Y-112294317D01*
X54643782Y-112288663D01*
X54641970Y-112282804D01*
X54640740Y-112276795D01*
X54640106Y-112270694D01*
X54640072Y-112264561D01*
X54640640Y-112258454D01*
X54641804Y-112252432D01*
X54643553Y-112246553D01*
X54645869Y-112240873D01*
X54698696Y-112127585D01*
X54701557Y-112122160D01*
X54704937Y-112117042D01*
X54708802Y-112112280D01*
X54713116Y-112107919D01*
X54717836Y-112104002D01*
X54722917Y-112100567D01*
X54728310Y-112097646D01*
X54733964Y-112095268D01*
X54739823Y-112093456D01*
X54745832Y-112092226D01*
X54751933Y-112091592D01*
X54758066Y-112091558D01*
X54764173Y-112092126D01*
X54764173Y-112092126D01*
G37*
D37*
X55012148Y-112342711D03*
D36*
G36*
X54552864Y-112545280D02*
G01*
X54558886Y-112546444D01*
X54564765Y-112548193D01*
X54570445Y-112550509D01*
X55136888Y-112814645D01*
X55142313Y-112817506D01*
X55147431Y-112820886D01*
X55152193Y-112824751D01*
X55156554Y-112829065D01*
X55160471Y-112833784D01*
X55163906Y-112838866D01*
X55166827Y-112844259D01*
X55169205Y-112849913D01*
X55171017Y-112855772D01*
X55172247Y-112861781D01*
X55172881Y-112867882D01*
X55172915Y-112874015D01*
X55172347Y-112880122D01*
X55171183Y-112886144D01*
X55169434Y-112892023D01*
X55167118Y-112897703D01*
X55114291Y-113010991D01*
X55111430Y-113016416D01*
X55108050Y-113021534D01*
X55104185Y-113026296D01*
X55099871Y-113030657D01*
X55095151Y-113034574D01*
X55090070Y-113038009D01*
X55084677Y-113040930D01*
X55079023Y-113043308D01*
X55073164Y-113045120D01*
X55067155Y-113046350D01*
X55061054Y-113046984D01*
X55054921Y-113047018D01*
X55048814Y-113046450D01*
X55042792Y-113045286D01*
X55036913Y-113043537D01*
X55031233Y-113041221D01*
X54464790Y-112777085D01*
X54459365Y-112774224D01*
X54454247Y-112770844D01*
X54449485Y-112766979D01*
X54445124Y-112762665D01*
X54441207Y-112757946D01*
X54437772Y-112752864D01*
X54434851Y-112747471D01*
X54432473Y-112741817D01*
X54430661Y-112735958D01*
X54429431Y-112729949D01*
X54428797Y-112723848D01*
X54428763Y-112717715D01*
X54429331Y-112711608D01*
X54430495Y-112705586D01*
X54432244Y-112699707D01*
X54434560Y-112694027D01*
X54487387Y-112580739D01*
X54490248Y-112575314D01*
X54493628Y-112570196D01*
X54497493Y-112565434D01*
X54501807Y-112561073D01*
X54506527Y-112557156D01*
X54511608Y-112553721D01*
X54517001Y-112550800D01*
X54522655Y-112548422D01*
X54528514Y-112546610D01*
X54534523Y-112545380D01*
X54540624Y-112544746D01*
X54546757Y-112544712D01*
X54552864Y-112545280D01*
X54552864Y-112545280D01*
G37*
D37*
X54800839Y-112795865D03*
D36*
G36*
X54341555Y-112998434D02*
G01*
X54347577Y-112999598D01*
X54353456Y-113001347D01*
X54359136Y-113003663D01*
X54925579Y-113267799D01*
X54931004Y-113270660D01*
X54936122Y-113274040D01*
X54940884Y-113277905D01*
X54945245Y-113282219D01*
X54949162Y-113286938D01*
X54952597Y-113292020D01*
X54955518Y-113297413D01*
X54957896Y-113303067D01*
X54959708Y-113308926D01*
X54960938Y-113314935D01*
X54961572Y-113321036D01*
X54961606Y-113327169D01*
X54961038Y-113333276D01*
X54959874Y-113339298D01*
X54958125Y-113345177D01*
X54955809Y-113350857D01*
X54902982Y-113464145D01*
X54900121Y-113469570D01*
X54896741Y-113474688D01*
X54892876Y-113479450D01*
X54888562Y-113483811D01*
X54883842Y-113487728D01*
X54878761Y-113491163D01*
X54873368Y-113494084D01*
X54867714Y-113496462D01*
X54861855Y-113498274D01*
X54855846Y-113499504D01*
X54849745Y-113500138D01*
X54843612Y-113500172D01*
X54837505Y-113499604D01*
X54831483Y-113498440D01*
X54825604Y-113496691D01*
X54819924Y-113494375D01*
X54253481Y-113230239D01*
X54248056Y-113227378D01*
X54242938Y-113223998D01*
X54238176Y-113220133D01*
X54233815Y-113215819D01*
X54229898Y-113211100D01*
X54226463Y-113206018D01*
X54223542Y-113200625D01*
X54221164Y-113194971D01*
X54219352Y-113189112D01*
X54218122Y-113183103D01*
X54217488Y-113177002D01*
X54217454Y-113170869D01*
X54218022Y-113164762D01*
X54219186Y-113158740D01*
X54220935Y-113152861D01*
X54223251Y-113147181D01*
X54276078Y-113033893D01*
X54278939Y-113028468D01*
X54282319Y-113023350D01*
X54286184Y-113018588D01*
X54290498Y-113014227D01*
X54295218Y-113010310D01*
X54300299Y-113006875D01*
X54305692Y-113003954D01*
X54311346Y-113001576D01*
X54317205Y-112999764D01*
X54323214Y-112998534D01*
X54329315Y-112997900D01*
X54335448Y-112997866D01*
X54341555Y-112998434D01*
X54341555Y-112998434D01*
G37*
D37*
X54589530Y-113249019D03*
D38*
X52402789Y-108739892D03*
D36*
G36*
X52241929Y-108297934D02*
G01*
X52844747Y-108579032D01*
X52615622Y-109070393D01*
X52452192Y-109129877D01*
X51960831Y-108900752D01*
X52241929Y-108297934D01*
X52241929Y-108297934D01*
G37*
D38*
X51208892Y-111300211D03*
D36*
G36*
X51048032Y-110858253D02*
G01*
X51539393Y-111087378D01*
X51598877Y-111250808D01*
X51369752Y-111742169D01*
X50766934Y-111461071D01*
X51048032Y-110858253D01*
X51048032Y-110858253D01*
G37*
D38*
X54963108Y-109933789D03*
D36*
G36*
X54573123Y-109983192D02*
G01*
X54802248Y-109491831D01*
X55405066Y-109772929D01*
X55123968Y-110375747D01*
X54632607Y-110146622D01*
X54573123Y-109983192D01*
X54573123Y-109983192D01*
G37*
D38*
X53769211Y-112494108D03*
D36*
G36*
X53556378Y-112163607D02*
G01*
X53719808Y-112104123D01*
X54211169Y-112333248D01*
X53930071Y-112936066D01*
X53327253Y-112654968D01*
X53556378Y-112163607D01*
X53556378Y-112163607D01*
G37*
D39*
X53229794Y-109125531D03*
D36*
G36*
X52768708Y-109160487D02*
G01*
X53004999Y-108653759D01*
X53735688Y-108994485D01*
X53499397Y-109501213D01*
X53358499Y-109552495D01*
X52819991Y-109301385D01*
X52768708Y-109160487D01*
X52768708Y-109160487D01*
G37*
D39*
X54136102Y-109548149D03*
D36*
G36*
X53675016Y-109583105D02*
G01*
X53911307Y-109076377D01*
X54641996Y-109417103D01*
X54405705Y-109923831D01*
X54264807Y-109975113D01*
X53726299Y-109724003D01*
X53675016Y-109583105D01*
X53675016Y-109583105D01*
G37*
D39*
X52035898Y-111685851D03*
D36*
G36*
X51766295Y-111310169D02*
G01*
X51907193Y-111258887D01*
X52445701Y-111509997D01*
X52496984Y-111650895D01*
X52260693Y-112157623D01*
X51530004Y-111816897D01*
X51766295Y-111310169D01*
X51766295Y-111310169D01*
G37*
D39*
X52942206Y-112108469D03*
D36*
G36*
X52672603Y-111732787D02*
G01*
X52813501Y-111681505D01*
X53352009Y-111932615D01*
X53403292Y-112073513D01*
X53167001Y-112580241D01*
X52436312Y-112239515D01*
X52672603Y-111732787D01*
X52672603Y-111732787D01*
G37*
D39*
X52017149Y-109566898D03*
D36*
G36*
X51886103Y-109061004D02*
G01*
X52392831Y-109297295D01*
X52444113Y-109438193D01*
X52193003Y-109976701D01*
X52052105Y-110027984D01*
X51545377Y-109791693D01*
X51886103Y-109061004D01*
X51886103Y-109061004D01*
G37*
D39*
X51594531Y-110473206D03*
D36*
G36*
X51463485Y-109967312D02*
G01*
X51970213Y-110203603D01*
X52021495Y-110344501D01*
X51770385Y-110883009D01*
X51629487Y-110934292D01*
X51122759Y-110698001D01*
X51463485Y-109967312D01*
X51463485Y-109967312D01*
G37*
D39*
X54577469Y-110760794D03*
D36*
G36*
X54150505Y-110889499D02*
G01*
X54401615Y-110350991D01*
X54542513Y-110299708D01*
X55049241Y-110535999D01*
X54708515Y-111266688D01*
X54201787Y-111030397D01*
X54150505Y-110889499D01*
X54150505Y-110889499D01*
G37*
D39*
X54154851Y-111667102D03*
D36*
G36*
X53727887Y-111795807D02*
G01*
X53978997Y-111257299D01*
X54119895Y-111206016D01*
X54626623Y-111442307D01*
X54285897Y-112172996D01*
X53779169Y-111936705D01*
X53727887Y-111795807D01*
X53727887Y-111795807D01*
G37*
G36*
X52775150Y-109485150D02*
G01*
X52794571Y-109488903D01*
X52813530Y-109494542D01*
X52831845Y-109502011D01*
X53197190Y-109672374D01*
X53214685Y-109681603D01*
X53231191Y-109692502D01*
X53246549Y-109704967D01*
X53260612Y-109718877D01*
X53273243Y-109734098D01*
X53284322Y-109750484D01*
X53293741Y-109767877D01*
X53301410Y-109786110D01*
X53307255Y-109805006D01*
X53311219Y-109824385D01*
X53313265Y-109844058D01*
X53313373Y-109863838D01*
X53311542Y-109883532D01*
X53307789Y-109902953D01*
X53302150Y-109921912D01*
X53294681Y-109940227D01*
X53124318Y-110305572D01*
X53115089Y-110323067D01*
X53104190Y-110339573D01*
X53091725Y-110354931D01*
X53077815Y-110368994D01*
X53062594Y-110381625D01*
X53046208Y-110392704D01*
X53028815Y-110402123D01*
X53010582Y-110409792D01*
X52991686Y-110415637D01*
X52972307Y-110419601D01*
X52952634Y-110421647D01*
X52932854Y-110421755D01*
X52913160Y-110419924D01*
X52893739Y-110416171D01*
X52874780Y-110410532D01*
X52856465Y-110403063D01*
X52491120Y-110232700D01*
X52473625Y-110223471D01*
X52457119Y-110212572D01*
X52441761Y-110200107D01*
X52427698Y-110186197D01*
X52415067Y-110170976D01*
X52403988Y-110154590D01*
X52394569Y-110137197D01*
X52386900Y-110118964D01*
X52381055Y-110100068D01*
X52377091Y-110080689D01*
X52375045Y-110061016D01*
X52374937Y-110041236D01*
X52376768Y-110021542D01*
X52380521Y-110002121D01*
X52386160Y-109983162D01*
X52393629Y-109964847D01*
X52563992Y-109599502D01*
X52573221Y-109582007D01*
X52584120Y-109565501D01*
X52596585Y-109550143D01*
X52610495Y-109536080D01*
X52625716Y-109523449D01*
X52642102Y-109512370D01*
X52659495Y-109502951D01*
X52677728Y-109495282D01*
X52696624Y-109489437D01*
X52716003Y-109485473D01*
X52735676Y-109483427D01*
X52755456Y-109483319D01*
X52775150Y-109485150D01*
X52775150Y-109485150D01*
G37*
D40*
X52844155Y-109952537D03*
D36*
G36*
X52352532Y-110391458D02*
G01*
X52371953Y-110395211D01*
X52390912Y-110400850D01*
X52409227Y-110408319D01*
X52774572Y-110578682D01*
X52792067Y-110587911D01*
X52808573Y-110598810D01*
X52823931Y-110611275D01*
X52837994Y-110625185D01*
X52850625Y-110640406D01*
X52861704Y-110656792D01*
X52871123Y-110674185D01*
X52878792Y-110692418D01*
X52884637Y-110711314D01*
X52888601Y-110730693D01*
X52890647Y-110750366D01*
X52890755Y-110770146D01*
X52888924Y-110789840D01*
X52885171Y-110809261D01*
X52879532Y-110828220D01*
X52872063Y-110846535D01*
X52701700Y-111211880D01*
X52692471Y-111229375D01*
X52681572Y-111245881D01*
X52669107Y-111261239D01*
X52655197Y-111275302D01*
X52639976Y-111287933D01*
X52623590Y-111299012D01*
X52606197Y-111308431D01*
X52587964Y-111316100D01*
X52569068Y-111321945D01*
X52549689Y-111325909D01*
X52530016Y-111327955D01*
X52510236Y-111328063D01*
X52490542Y-111326232D01*
X52471121Y-111322479D01*
X52452162Y-111316840D01*
X52433847Y-111309371D01*
X52068502Y-111139008D01*
X52051007Y-111129779D01*
X52034501Y-111118880D01*
X52019143Y-111106415D01*
X52005080Y-111092505D01*
X51992449Y-111077284D01*
X51981370Y-111060898D01*
X51971951Y-111043505D01*
X51964282Y-111025272D01*
X51958437Y-111006376D01*
X51954473Y-110986997D01*
X51952427Y-110967324D01*
X51952319Y-110947544D01*
X51954150Y-110927850D01*
X51957903Y-110908429D01*
X51963542Y-110889470D01*
X51971011Y-110871155D01*
X52141374Y-110505810D01*
X52150603Y-110488315D01*
X52161502Y-110471809D01*
X52173967Y-110456451D01*
X52187877Y-110442388D01*
X52203098Y-110429757D01*
X52219484Y-110418678D01*
X52236877Y-110409259D01*
X52255110Y-110401590D01*
X52274006Y-110395745D01*
X52293385Y-110391781D01*
X52313058Y-110389735D01*
X52332838Y-110389627D01*
X52352532Y-110391458D01*
X52352532Y-110391458D01*
G37*
D40*
X52421537Y-110858845D03*
D36*
G36*
X53681458Y-109907768D02*
G01*
X53700879Y-109911521D01*
X53719838Y-109917160D01*
X53738153Y-109924629D01*
X54103498Y-110094992D01*
X54120993Y-110104221D01*
X54137499Y-110115120D01*
X54152857Y-110127585D01*
X54166920Y-110141495D01*
X54179551Y-110156716D01*
X54190630Y-110173102D01*
X54200049Y-110190495D01*
X54207718Y-110208728D01*
X54213563Y-110227624D01*
X54217527Y-110247003D01*
X54219573Y-110266676D01*
X54219681Y-110286456D01*
X54217850Y-110306150D01*
X54214097Y-110325571D01*
X54208458Y-110344530D01*
X54200989Y-110362845D01*
X54030626Y-110728190D01*
X54021397Y-110745685D01*
X54010498Y-110762191D01*
X53998033Y-110777549D01*
X53984123Y-110791612D01*
X53968902Y-110804243D01*
X53952516Y-110815322D01*
X53935123Y-110824741D01*
X53916890Y-110832410D01*
X53897994Y-110838255D01*
X53878615Y-110842219D01*
X53858942Y-110844265D01*
X53839162Y-110844373D01*
X53819468Y-110842542D01*
X53800047Y-110838789D01*
X53781088Y-110833150D01*
X53762773Y-110825681D01*
X53397428Y-110655318D01*
X53379933Y-110646089D01*
X53363427Y-110635190D01*
X53348069Y-110622725D01*
X53334006Y-110608815D01*
X53321375Y-110593594D01*
X53310296Y-110577208D01*
X53300877Y-110559815D01*
X53293208Y-110541582D01*
X53287363Y-110522686D01*
X53283399Y-110503307D01*
X53281353Y-110483634D01*
X53281245Y-110463854D01*
X53283076Y-110444160D01*
X53286829Y-110424739D01*
X53292468Y-110405780D01*
X53299937Y-110387465D01*
X53470300Y-110022120D01*
X53479529Y-110004625D01*
X53490428Y-109988119D01*
X53502893Y-109972761D01*
X53516803Y-109958698D01*
X53532024Y-109946067D01*
X53548410Y-109934988D01*
X53565803Y-109925569D01*
X53584036Y-109917900D01*
X53602932Y-109912055D01*
X53622311Y-109908091D01*
X53641984Y-109906045D01*
X53661764Y-109905937D01*
X53681458Y-109907768D01*
X53681458Y-109907768D01*
G37*
D40*
X53750463Y-110375155D03*
D36*
G36*
X53258840Y-110814076D02*
G01*
X53278261Y-110817829D01*
X53297220Y-110823468D01*
X53315535Y-110830937D01*
X53680880Y-111001300D01*
X53698375Y-111010529D01*
X53714881Y-111021428D01*
X53730239Y-111033893D01*
X53744302Y-111047803D01*
X53756933Y-111063024D01*
X53768012Y-111079410D01*
X53777431Y-111096803D01*
X53785100Y-111115036D01*
X53790945Y-111133932D01*
X53794909Y-111153311D01*
X53796955Y-111172984D01*
X53797063Y-111192764D01*
X53795232Y-111212458D01*
X53791479Y-111231879D01*
X53785840Y-111250838D01*
X53778371Y-111269153D01*
X53608008Y-111634498D01*
X53598779Y-111651993D01*
X53587880Y-111668499D01*
X53575415Y-111683857D01*
X53561505Y-111697920D01*
X53546284Y-111710551D01*
X53529898Y-111721630D01*
X53512505Y-111731049D01*
X53494272Y-111738718D01*
X53475376Y-111744563D01*
X53455997Y-111748527D01*
X53436324Y-111750573D01*
X53416544Y-111750681D01*
X53396850Y-111748850D01*
X53377429Y-111745097D01*
X53358470Y-111739458D01*
X53340155Y-111731989D01*
X52974810Y-111561626D01*
X52957315Y-111552397D01*
X52940809Y-111541498D01*
X52925451Y-111529033D01*
X52911388Y-111515123D01*
X52898757Y-111499902D01*
X52887678Y-111483516D01*
X52878259Y-111466123D01*
X52870590Y-111447890D01*
X52864745Y-111428994D01*
X52860781Y-111409615D01*
X52858735Y-111389942D01*
X52858627Y-111370162D01*
X52860458Y-111350468D01*
X52864211Y-111331047D01*
X52869850Y-111312088D01*
X52877319Y-111293773D01*
X53047682Y-110928428D01*
X53056911Y-110910933D01*
X53067810Y-110894427D01*
X53080275Y-110879069D01*
X53094185Y-110865006D01*
X53109406Y-110852375D01*
X53125792Y-110841296D01*
X53143185Y-110831877D01*
X53161418Y-110824208D01*
X53180314Y-110818363D01*
X53199693Y-110814399D01*
X53219366Y-110812353D01*
X53239146Y-110812245D01*
X53258840Y-110814076D01*
X53258840Y-110814076D01*
G37*
D40*
X53327845Y-111281463D03*
D41*
X47840900Y-100672900D03*
X49110900Y-100672900D03*
X50380900Y-100672900D03*
X50380900Y-103852900D03*
X49110900Y-103852900D03*
X47840900Y-103852900D03*
D27*
X68795900Y-138560900D03*
X68795900Y-137460900D03*
X60502800Y-132927000D03*
X60502800Y-134027000D03*
X57924700Y-132927000D03*
X57924700Y-134027000D03*
X59207400Y-132927000D03*
X59207400Y-134027000D03*
D30*
X67729100Y-131291900D03*
X67729100Y-132791900D03*
D29*
X60325700Y-142913100D03*
X58825700Y-142913100D03*
D27*
X61290200Y-101019700D03*
X61290200Y-99919700D03*
X61315600Y-103585100D03*
X61315600Y-102485100D03*
M02*
